<?xml version="1.0" encoding="utf-8"?>
<!-- Generator: Adobe Illustrator 24.0.3, SVG Export Plug-In . SVG Version: 6.00 Build 0)  -->
<svg version="1.1" id="Layer_1" xmlns="http://www.w3.org/2000/svg" xmlns:xlink="http://www.w3.org/1999/xlink" x="0px" y="0px"
	 viewBox="0 0 400 599.5" style="enable-background:new 0 0 400 599.5;" xml:space="preserve">
<style type="text/css">
	.st0{fill:#D6DDD8;}
	.st1{clip-path:url(#SVGID_2_);}
	.st2{fill:#CE7D5D;}
	.st3{fill:#351D1A;}
	.st4{fill:#F7D1BA;}
	.st5{fill:#FFFFFF;}
	.st6{fill:#CE7D5D;stroke:#000000;stroke-miterlimit:10;}
	.st7{fill:none;stroke:#000000;stroke-miterlimit:10;}
	.st8{fill:#557571;}
</style>
<g id="Layer_1_1_">
</g>
<g id="frame">
</g>
<g id="leaves">
</g>
<g id="person">
</g>
<g id="white_overs">
</g>
<g id="lips">
</g>
<g id="outlines">
</g>
<g id="hair_tie">
</g>
<g id="earrings">
	<g>
		<path class="st0" d="M400,599.5H0V200C0,89.5,89.5,0,200,0l0,0c110.5,0,200,89.5,200,200V599.5z"/>
		<g>
			<g>
				<g>
					<defs>
						<path id="SVGID_1_" d="M400,599.5H0V200C0,89.5,89.5,0,200,0l0,0c110.5,0,200,89.5,200,200V599.5z"/>
					</defs>
					<clipPath id="SVGID_2_">
						<use xlink:href="#SVGID_1_"  style="overflow:visible;"/>
					</clipPath>
					<g class="st1">
						<g>
							<g>
								<path class="st2" d="M12.8,562.1l0.7-2c0.1-0.2,1.6-4.3,4.6-8.9c4.1-6.1,9-10,14.2-11.2c12.4-2.9,23.7-0.7,23.9-0.6l1.1,0.2
									l-0.9,0.7c-0.1,0.1-9.3,7-21.7,9.9l0,0c-12.2,2.8-20.3,10.4-20.4,10.5L12.8,562.1z M45.9,539.5c-3.9,0-8.5,0.3-13.3,1.5
									c-9.6,2.2-15.4,13.2-17.4,17.6c3-2.4,10-7.3,19.3-9.4c9.9-2.3,17.7-7.2,20.4-9.1C53.2,539.9,50,539.5,45.9,539.5z"/>
							</g>
							<g>
								<path class="st2" d="M70.3,505.3l0.6-0.9c0.1-0.1,6.7-9.5,17.6-16.1c10.8-6.5,22.1-17.6,22.2-17.7l1.5-1.5l-0.7,2
									c-0.3,0.8-6.7,19.6-17.7,26.2l0,0c-11,6.5-22.4,7.9-22.5,7.9L70.3,505.3z M109.9,472.8c-3.5,3.3-12.3,11.3-20.8,16.4
									c-8.7,5.2-14.7,12.3-16.6,14.8c3.2-0.5,12.2-2.4,21-7.6l0,0C102,491.3,107.9,477.9,109.9,472.8z"/>
							</g>
							<g>
								<path class="st2" d="M80.6,599.5h3.5c-3.8-10.2-7.2-20.6-10.2-31.1c-5.2-18-9.2-36.3-11.8-54.8c-1.2-9.3-2.1-18.6-2.6-27.9
									c-0.4-9.3-0.3-18.7,0.3-28c0.7-9.3,1.9-18.6,3.7-27.8c2-9.1,4.6-18.1,7.9-26.9l0,0c0.1-0.3,0-0.5-0.3-0.6s-0.5,0-0.6,0.3
									c-3.4,8.8-6.2,17.8-8.3,27c-1.9,9.2-3.3,18.5-4.1,27.9c-0.7,9.4-0.9,18.8-0.6,28.2c0.4,9.4,1.1,18.8,2.3,28.1
									c2.4,18.7,6.2,37.2,11.2,55.3C73.9,579.4,77.1,589.5,80.6,599.5z"/>
							</g>
							<g>
								<path class="st2" d="M66.9,548.6c-0.8-1.9-2-3.7-3.5-5.1c-1.4-1.5-3.2-2.7-5.3-3.1c-1-0.2-2-0.2-3.1-0.1s-2.1,0.1-3.2,0.2
									c-2.1,0.2-4.2,0.4-6.4,0.7c-4.2,0.6-8.4,1.4-12.5,2.7c-2,0.7-4,1.6-5.8,2.7s-3.6,2.4-4.7,4.2l-0.1-0.1
									c1.1-1.9,2.9-3.2,4.7-4.4c1.8-1.1,3.8-2,5.8-2.7c4.1-1.4,8.3-2.3,12.5-3c2.1-0.3,4.2-0.6,6.4-0.9c1.1-0.1,2.1-0.2,3.2-0.3
									s2.2-0.2,3.3,0.1c2.2,0.4,4.2,1.7,5.7,3.2c1.6,1.6,2.8,3.4,3.8,5.4L66.9,548.6z"/>
							</g>
							<g>
								<path class="st2" d="M7.4,524.2l0.4-1.6c0.1-0.7,3.7-16.2,15.2-22.2c11.3-5.9,22.8-6.6,22.9-6.7l1.1-0.1l-0.7,0.9
									c-0.1,0.1-7.2,9.2-18.5,15.1C16.7,515.5,8.7,523,8.6,523L7.4,524.2z M44.7,494.8c-3.2,0.3-12.3,1.7-21.3,6.4
									c-8.9,4.7-13,15.8-14.2,19.9c2.7-2.4,9.5-7.9,18.1-12.5C36.3,504,42.6,497.2,44.7,494.8z"/>
							</g>
							<g>
								<path class="st2" d="M58.5,500c-1.3-1.6-3-3.1-4.8-4.2s-3.9-1.7-6-1.6c-1,0.1-2.1,0.4-3.1,0.8c-1,0.3-2.1,0.7-3.1,1.1
									c-2.1,0.8-4.1,1.6-6.1,2.4c-4,1.7-8,3.6-11.6,6.1c-1.8,1.2-3.6,2.5-5.2,4s-3.2,3-4.3,4.9l-0.1-0.1c1.2-1.9,2.7-3.5,4.3-5
									s3.4-2.8,5.2-4c3.6-2.5,7.6-4.5,11.6-6.3c2-0.9,4-1.7,6.1-2.5c1-0.4,2.1-0.8,3.1-1.1c1-0.4,2.1-0.7,3.3-0.9
									c2.3-0.3,4.6,0.4,6.5,1.5c2,1.1,3.7,2.6,5.2,4.3L58.5,500z"/>
							</g>
							<g>
								<path class="st2" d="M62.4,527.8c0.9-5,2-10,3.4-14.9c0.4-1.2,0.7-2.4,1.3-3.7c0.1-0.3,0.3-0.6,0.4-0.9
									c0.1-0.3,0.3-0.6,0.5-0.9c0.4-0.6,0.8-1.1,1.2-1.6c1.9-1.9,4.2-3.1,6.5-4.2c4.6-2.2,9.4-3.9,13.7-6.6c4.3-2.6,8.2-6,11.3-10
									l0.2,0.1c-3.1,4.1-6.9,7.6-11.2,10.3c-4.3,2.7-9.1,4.6-13.6,6.8c-2.2,1.1-4.5,2.4-6.2,4.1c-0.8,0.9-1.4,1.9-1.9,3.1
									c-0.5,1.1-0.8,2.4-1.2,3.6c-1.4,4.9-2.4,9.8-3.4,14.8L62.4,527.8z"/>
							</g>
							<g>
								<g>
									<path class="st2" d="M30.6,469.6l-0.5-1.6c-0.2-0.6-5.1-15.8,1.6-26.8c6.7-10.9,16.2-17.4,16.3-17.5l0.9-0.6l-0.1,1.1
										c0,0.1-1.5,11.6-8.1,22.4l0,0c-6.6,10.7-9.6,21.3-9.6,21.4L30.6,469.6z M47.6,425.3c-2.6,1.9-9.7,7.8-15,16.4
										c-5.2,8.6-3,20.2-2,24.4c1.1-3.4,4.1-11.6,9.2-20C45,437.5,47,428.5,47.6,425.3z"/>
								</g>
								<g>
									<path class="st2" d="M65.2,419.3c-2-0.8-4.1-1.2-6.2-1.2s-4.3,0.5-6,1.7c-0.9,0.6-1.6,1.4-2.3,2.2
										c-0.7,0.8-1.4,1.6-2.1,2.5c-1.4,1.7-2.8,3.4-4.1,5.1c-2.7,3.5-5.1,7.1-7.1,11c-1,2-1.9,4-2.5,6c-0.7,2.1-1.2,4.2-1.3,6.4
										l0,0c0,0,0,0.1-0.1,0.1c0,0-0.1,0-0.1-0.1c0.1-2.2,0.6-4.4,1.3-6.5s1.5-4.1,2.5-6.1c1.9-4,4.3-7.7,6.9-11.2
										c1.3-1.8,2.6-3.5,4-5.2c0.7-0.9,1.4-1.7,2.1-2.5s1.5-1.7,2.4-2.4c1.9-1.4,4.2-1.9,6.4-1.9c2.3,0,4.5,0.4,6.6,1.2
										c0.3,0.1,0.4,0.4,0.3,0.6C65.8,419.2,65.5,419.4,65.2,419.3L65.2,419.3L65.2,419.3z"/>
								</g>
							</g>
							<g>
								<path class="st2" d="M65.1,468.3l0.3-1.1c0.1-0.3,1.8-6.5,6.5-12.2c4.8-5.8,14.1-6,14.4-6h1.6l-1.4,0.9
									c-0.1,0-5.2,3.6-9.8,9.2l0,0c-4.7,5.7-10.5,8.6-10.8,8.7L65.1,468.3z M84.6,450.2c-2.9,0.3-8.7,1.5-12,5.5
									c-3.4,4.1-5.2,8.6-5.9,10.7c1.9-1.1,6-3.7,9.3-7.8C79.3,454.6,82.8,451.7,84.6,450.2z"/>
							</g>
							<g>
								<path class="st2" d="M57.7,481.4l7.9-14.1l0,0l0,0c2.1-2.9,4.1-5.8,6.3-8.7c0.5-0.7,1.1-1.4,1.7-2.1s1.3-1.3,2-1.8
									c1.5-1,3.1-1.9,4.8-2.4l0,0l0,0c-1.7,0.6-3.3,1.5-4.7,2.5c-0.7,0.5-1.4,1.1-1.9,1.8c-0.6,0.7-1.1,1.4-1.6,2.1
									c-2.1,2.9-4.1,5.8-6.2,8.8l0,0l-7.4,14.3c-0.1,0.2-0.4,0.3-0.7,0.2C57.7,481.9,57.6,481.6,57.7,481.4L57.7,481.4z"/>
							</g>
						</g>
						<g>
							<g>
								<path class="st2" d="M316.2,564.8l-1.5-1.4c-0.1-0.1-8.2-7.7-20.4-10.5l0,0c-12.4-2.9-21.6-9.9-21.7-9.9l-0.9-0.7l1.1-0.2
									c0.1,0,11.4-2.2,23.9,0.6c5.2,1.2,10.1,5.1,14.2,11.2c3.1,4.6,4.6,8.8,4.6,8.9L316.2,564.8z M294.5,551.9
									c9.3,2.2,16.3,7,19.3,9.4c-2-4.4-7.8-15.4-17.4-17.6c-9.9-2.3-19.1-1.3-22.3-0.8C276.8,544.7,284.6,549.6,294.5,551.9
									L294.5,551.9z"/>
							</g>
							<g>
								<path class="st2" d="M258.7,508l-1.1-0.1c-0.1,0-11.6-1.3-22.5-7.9l0,0c-11-6.6-17.4-25.4-17.7-26.2l-0.7-2l1.5,1.5
									c0.1,0.1,11.4,11.3,22.2,17.7c11,6.5,17.6,16,17.6,16.1L258.7,508z M235.6,499.1c8.7,5.2,17.8,7.1,21,7.6
									c-2-2.5-7.9-9.6-16.6-14.8c-8.5-5.1-17.3-13.1-20.8-16.4C221.1,480.6,227,494,235.6,499.1L235.6,499.1z"/>
							</g>
							<g>
								<path class="st2" d="M248.4,602.2h-3.5c3.8-10.2,7.2-20.6,10.2-31.1c5.2-18,9.2-36.3,11.8-54.8c1.2-9.3,2.1-18.6,2.6-27.9
									c0.4-9.3,0.3-18.7-0.3-28c-0.7-9.3-1.9-18.6-3.7-27.8c-2-9.1-4.6-18.1-7.9-26.9l0,0c-0.1-0.3,0-0.5,0.3-0.6s0.5,0,0.6,0.3
									c3.4,8.8,6.2,17.8,8.3,27c1.9,9.2,3.3,18.5,4.1,27.9c0.7,9.4,0.9,18.8,0.6,28.2c-0.4,9.4-1.1,18.8-2.3,28.1
									c-2.4,18.7-6.2,37.2-11.2,55.3C255.1,582.1,251.9,592.2,248.4,602.2z"/>
							</g>
							<g>
								<path class="st2" d="M261.2,550.9c1-2,2.2-3.8,3.8-5.4c1.6-1.5,3.5-2.8,5.7-3.2c1.1-0.2,2.2-0.2,3.3-0.1
									c1.1,0.1,2.1,0.2,3.2,0.3c2.1,0.2,4.3,0.5,6.4,0.9c4.2,0.7,8.5,1.5,12.5,3c2,0.7,4,1.6,5.8,2.7c1.8,1.2,3.6,2.5,4.7,4.4
									l-0.1,0.1c-1.1-1.8-2.9-3.1-4.7-4.2c-1.8-1.1-3.8-2-5.8-2.7c-4-1.4-8.3-2.2-12.5-2.7c-2.1-0.3-4.2-0.5-6.4-0.7
									c-1.1-0.1-2.1-0.2-3.2-0.2c-1.1-0.1-2.1-0.1-3.1,0.1c-2,0.4-3.8,1.6-5.3,3.1c-1.4,1.5-2.6,3.3-3.5,5.1L261.2,550.9z"/>
							</g>
							<g>
								<path class="st2" d="M321.5,526.8l-1.2-1.1c-0.1-0.1-8-7.6-19.2-13.4l0,0c-11.3-5.9-18.4-15-18.5-15.1l-0.7-0.9l1.1,0.1
									c0.1,0,11.6,0.7,22.9,6.7c11.4,6,15,21.6,15.2,22.2L321.5,526.8z M284.2,497.5c2.1,2.4,8.4,9.2,17.4,13.9l0,0
									c8.7,4.5,15.4,10.1,18.1,12.4c-1.2-4.2-5.3-15.3-14.2-19.9C296.6,499.2,287.4,497.8,284.2,497.5z"/>
							</g>
							<g>
								<path class="st2" d="M269.7,502c1.5-1.7,3.2-3.2,5.2-4.3s4.2-1.8,6.5-1.5c1.1,0.1,2.2,0.5,3.3,0.9c1,0.4,2.1,0.8,3.1,1.1
									c2,0.8,4.1,1.6,6.1,2.5c4,1.8,8,3.8,11.6,6.3c1.8,1.2,3.6,2.6,5.2,4c1.6,1.5,3.2,3.1,4.3,5l-0.1,0.1
									c-1.2-1.8-2.7-3.4-4.3-4.9c-1.6-1.5-3.4-2.8-5.2-4c-3.6-2.4-7.6-4.4-11.6-6.1c-2-0.9-4.1-1.7-6.1-2.4
									c-1-0.4-2.1-0.7-3.1-1.1c-1-0.3-2.1-0.7-3.1-0.8c-2.1-0.2-4.2,0.5-6,1.6s-3.5,2.5-4.8,4.2L269.7,502z"/>
							</g>
							<g>
								<path class="st2" d="M265.6,530.7c-1-5-2-9.9-3.4-14.8c-0.4-1.2-0.7-2.4-1.2-3.6c-0.5-1.2-1-2.2-1.9-3.1
									c-1.7-1.8-3.9-3-6.2-4.1c-4.5-2.2-9.3-4.1-13.6-6.8s-8.1-6.3-11.2-10.3l0.2-0.1c3.2,3.9,7,7.4,11.3,10s9.1,4.4,13.7,6.6
									c2.3,1.1,4.6,2.3,6.5,4.2c0.5,0.5,0.9,1,1.2,1.6c0.2,0.3,0.3,0.6,0.5,0.9c0.1,0.3,0.3,0.6,0.4,0.9c0.5,1.2,0.9,2.4,1.3,3.7
									c1.4,4.9,2.5,9.9,3.4,14.9L265.6,530.7z"/>
							</g>
							<g>
								<g>
									<path class="st2" d="M298.4,472.3l-0.4-1.6c0-0.1-3-10.6-9.6-21.4c-6.7-10.9-8.1-22.3-8.1-22.4l-0.1-1.1l0.9,0.6
										c0.1,0.1,9.6,6.6,16.3,17.5c6.7,11,1.8,26.2,1.6,26.8L298.4,472.3z M281.4,428c0.6,3.2,2.5,12.2,7.8,20.9
										c5.1,8.3,8.1,16.6,9.2,20c1.1-4.2,3.3-15.8-2-24.4C291.1,435.7,284,429.9,281.4,428z"/>
								</g>
								<g>
									<path class="st2" d="M263.4,421c2.1-0.8,4.4-1.2,6.6-1.2s4.6,0.6,6.4,1.9c0.9,0.7,1.7,1.5,2.4,2.4c0.7,0.8,1.4,1.7,2.1,2.5
										c1.4,1.7,2.7,3.5,4,5.2c2.6,3.5,5,7.2,6.9,11.2c1,2,1.8,4,2.5,6.1s1.2,4.2,1.3,6.5c0,0,0,0.1-0.1,0.1c0,0-0.1,0-0.1-0.1
										l0,0c-0.1-2.2-0.7-4.3-1.3-6.4c-0.7-2.1-1.6-4.1-2.5-6c-1.9-3.9-4.4-7.6-7.1-11c-1.3-1.7-2.7-3.5-4.1-5.1
										c-0.7-0.8-1.4-1.7-2.1-2.5s-1.4-1.6-2.3-2.2c-1.7-1.2-3.9-1.7-6-1.7s-4.3,0.5-6.2,1.2l0,0c-0.3,0.1-0.5,0-0.6-0.3
										C263,421.4,263.1,421.1,263.4,421L263.4,421z"/>
								</g>
							</g>
							<g>
								<path class="st2" d="M263.9,471l-1-0.5c-0.2-0.1-6-3-10.8-8.7c-4.6-5.6-9.7-9.1-9.8-9.2l-1.4-0.9h1.6c0.4,0,9.7,0.2,14.4,6
									c4.7,5.7,6.4,11.9,6.5,12.2L263.9,471z M244.3,452.9c1.9,1.5,5.4,4.4,8.6,8.3c3.4,4.1,7.4,6.7,9.3,7.8
									c-0.7-2.1-2.5-6.6-5.9-10.7C253,454.4,247.2,453.2,244.3,452.9z"/>
							</g>
							<g>
								<path class="st2" d="M270.4,484.5l-7.4-14.3l0,0c-2-3-4-5.9-6.2-8.8c-0.5-0.7-1.1-1.4-1.6-2.1c-0.6-0.7-1.2-1.3-1.9-1.8
									c-1.4-1.1-3-1.9-4.7-2.5l0,0l0,0c1.7,0.6,3.3,1.4,4.8,2.4c0.7,0.5,1.4,1.1,2,1.8s1.1,1.4,1.7,2.1c2.2,2.8,4.3,5.8,6.3,8.7
									l0,0l0,0l7.9,14.1c0.1,0.2,0,0.5-0.2,0.7C270.8,484.9,270.5,484.8,270.4,484.5L270.4,484.5z"/>
							</g>
						</g>
						<g>
							<g>
								<path class="st2" d="M353.5,631.7l-0.3-2.1c0-0.1-1.7-11.1-9.6-20.9c-8-9.9-10.9-21.1-11-21.2l-0.3-1.1l1,0.5
									c0.1,0.1,10.4,5.3,18.4,15.2c3.4,4.2,4.8,10.3,4.3,17.6c-0.4,5.5-1.8,9.7-1.9,9.9L353.5,631.7z M334,588.4
									c1,3.1,4,11.8,10.4,19.7c6,7.4,8.5,15.6,9.4,19.3c1.2-4.7,3.4-16.9-2.8-24.6C344.6,594.9,336.8,590,334,588.4z"/>
							</g>
							<g>
								<path class="st2" d="M343.4,551.5l-0.8-0.8c-0.1-0.1-8.3-8.2-12.9-20.1c-4.6-12,2-30.8,2.2-31.5l0.7-2l0.3,2.1
									c0,0.2,2,15.9,6.5,27.7c4.6,11.9,4,23.4,4,23.5L343.4,551.5L343.4,551.5z M332.2,501.4c-1.6,5.3-5.2,19.4-1.6,28.8
									c3.7,9.5,9.6,16.5,11.8,18.9c0-3.2-0.3-12.4-3.9-21.9C335,517.9,333,506.2,332.2,501.4z"/>
							</g>
							<g>
								<path class="st2" d="M277.1,619.2l-2.8-2.2c9.3-5.7,18.4-11.8,27.3-18.2c15.2-10.9,29.6-22.9,43.1-35.9
									c6.7-6.5,13.1-13.3,19.3-20.4c6.1-7.1,11.8-14.5,17.1-22.2c5.2-7.8,10-15.8,14.2-24.2c4.1-8.4,7.5-17.1,10.3-26.1l0,0
									c0.1-0.3,0.4-0.4,0.6-0.3c0.3,0.1,0.4,0.4,0.3,0.6c-2.7,9-6.1,17.8-10.1,26.4c-4.2,8.5-8.8,16.6-14,24.5
									c-5.3,7.8-10.9,15.3-17,22.6c-6.1,7.2-12.5,14.1-19.2,20.7c-13.4,13.2-27.8,25.4-43,36.6C294.7,607.5,286,613.6,277.1,619.2
									z"/>
							</g>
							<g>
								<path class="st2" d="M318.8,586.8c2-1,4.1-1.6,6.3-1.9c2.2-0.2,4.5,0,6.5,1c1,0.5,1.9,1.3,2.6,2c0.8,0.7,1.6,1.5,2.3,2.2
									c1.5,1.5,3,3,4.5,4.6c2.9,3.1,5.7,6.4,8,10c1.1,1.8,2.1,3.7,2.9,5.8c0.7,2,1.3,4.2,1,6.3h-0.2c0.3-2.1-0.3-4.2-1.1-6.2
									s-1.8-3.9-2.9-5.7c-2.3-3.6-5.2-6.8-8.1-9.9c-1.5-1.5-3-3-4.5-4.5c-0.8-0.7-1.6-1.5-2.4-2.2c-0.8-0.7-1.6-1.4-2.5-1.8
									c-1.8-0.9-4-1.1-6-0.8c-2.1,0.3-4.1,1-5.9,1.9L318.8,586.8z"/>
							</g>
							<g>
								<path class="st2" d="M381.2,605.1l-0.2-1.6c0-0.1-1.6-10.9-6.8-22.4l0,0c-5.2-11.6-5.2-23.2-5.2-23.3v-1.1l0.8,0.7
									c0.1,0.1,8.7,7.7,13.9,19.4c5.3,11.8-1.5,26.2-1.8,26.8L381.2,605.1z M375,580.7c4,8.9,5.9,17.5,6.6,21
									c1.6-4,5.2-15.3,1.1-24.4c-4.2-9.3-10.5-16-12.8-18.2C370.1,562.2,370.9,571.4,375,580.7L375,580.7z"/>
							</g>
							<g>
								<path class="st2" d="M355.7,553.5c2.2-0.5,4.5-0.5,6.7-0.2c2.2,0.3,4.4,1.2,6.1,2.8c0.8,0.8,1.4,1.8,2,2.7s1.2,1.9,1.7,2.8
									c1.1,1.9,2.2,3.8,3.2,5.7c2.1,3.9,3.9,7.9,5.3,12.1c0.7,2.1,1.2,4.2,1.6,6.4c0.4,2.2,0.6,4.4,0.3,6.6h-0.2
									c0.2-2.2,0-4.4-0.4-6.5c-0.4-2.2-1-4.3-1.7-6.3c-1.4-4.2-3.3-8.1-5.4-11.9c-1.1-1.9-2.2-3.8-3.3-5.7
									c-0.6-0.9-1.2-1.9-1.8-2.8c-0.6-0.9-1.2-1.8-2-2.5c-1.5-1.4-3.6-2.2-5.7-2.5c-2.1-0.3-4.3-0.1-6.4,0.3L355.7,553.5z"/>
							</g>
							<g>
								<path class="st2" d="M334.8,573.6c2.3-4.5,4.5-9.1,6.4-13.7c0.5-1.2,0.9-2.3,1.2-3.5c0.3-1.2,0.5-2.4,0.4-3.6
									c-0.2-2.4-1.2-4.8-2.3-7.1c-2.2-4.5-4.8-9-6.5-13.8c-1.7-4.8-2.5-9.9-2.4-15h0.2c0.1,5.1,1,10.1,2.8,14.8
									c1.8,4.7,4.4,9.1,6.7,13.6c1.1,2.3,2.2,4.7,2.5,7.3c0.1,0.7,0.1,1.3,0,2c0,0.3-0.1,0.7-0.2,1c-0.1,0.3-0.1,0.6-0.2,1
									c-0.3,1.3-0.8,2.4-1.3,3.6c-1.9,4.7-4.1,9.3-6.5,13.8L334.8,573.6z"/>
							</g>
							<g>
								<path class="st2" d="M370.3,525.6l-0.5-1c-0.1-0.2-2.9-6.1-3.1-13.5l0,0c-0.2-7.2-2-13.2-2-13.2l-0.5-1.6l1.3,1
									c0.3,0.2,7.5,6.1,7.7,13.6c0.2,7.4-2.3,13.4-2.4,13.6L370.3,525.6z M367.7,511.1c0.1,5.3,1.7,9.9,2.5,11.9
									c0.7-2.1,2-6.7,1.9-12c-0.1-5.2-4-9.7-6.1-11.7C366.6,501.6,367.6,506.1,367.7,511.1L367.7,511.1z"/>
							</g>
							<g>
								<path class="st2" d="M367,540.2l3-15.9l0,0c0.2-3.6,0.5-7.1,0.6-10.7c0-0.9,0-1.8,0-2.7s-0.2-1.8-0.4-2.6
									c-0.5-1.7-1.2-3.4-2.1-4.9l0,0l0,0c1,1.5,1.7,3.1,2.3,4.9c0.2,0.9,0.4,1.8,0.5,2.7c0,0.9,0,1.8,0,2.7
									c0,3.6-0.2,7.2-0.4,10.7l0,0l0,0l-2.5,16c0,0.3-0.3,0.5-0.6,0.4C367.2,540.8,367,540.5,367,540.2L367,540.2z"/>
							</g>
						</g>
						<g>
							<g>
								<path class="st2" d="M57.5,331.1l-1.5-1.4c-0.1-0.1-8.2-7.7-20.4-10.5l0,0c-12.4-2.9-21.6-9.9-21.7-9.9l-0.9-0.7l1.1-0.2
									c0.1,0,11.4-2.2,23.9,0.6c5.2,1.2,10.1,5.1,14.2,11.2c3.1,4.6,4.6,8.8,4.6,8.9L57.5,331.1z M15.5,309.1
									c2.6,1.8,10.4,6.8,20.4,9.1l0,0c9.3,2.2,16.3,7,19.3,9.4c-2-4.4-7.8-15.4-17.4-17.6C27.8,307.7,18.6,308.7,15.5,309.1z"/>
							</g>
							<g>
								<path class="st2" d="M0,274.3l-1.1-0.1c-0.1,0-11.6-1.3-22.5-7.9l0,0c-11-6.6-17.4-25.4-17.7-26.2l-0.7-2l1.5,1.5
									c0.1,0.1,11.4,11.3,22.2,17.7c11,6.5,17.6,16,17.6,16.1L0,274.3z M-23.1,265.4c8.7,5.2,17.8,7.1,21,7.6
									c-2-2.5-7.9-9.6-16.6-14.8c-8.5-5.1-17.3-13.1-20.8-16.4C-37.6,246.9-31.7,260.3-23.1,265.4L-23.1,265.4z"/>
							</g>
							<g>
								<path class="st2" d="M-10.3,368.5h-3.5c3.8-10.2,7.2-20.6,10.2-31.1c5.2-18,9.2-36.3,11.8-54.8c1.2-9.3,2.1-18.6,2.6-27.9
									c0.4-9.3,0.3-18.7-0.3-28c-0.7-9.3-1.9-18.6-3.7-27.8c-2-9.1-4.6-18.1-7.9-26.9l0,0c-0.1-0.3,0-0.5,0.3-0.6s0.5,0,0.6,0.3
									c3.4,8.8,6.2,17.8,8.3,27c1.9,9.2,3.3,18.5,4.1,27.9c0.7,9.4,0.9,18.8,0.6,28.2c-0.4,9.4-1.1,18.8-2.3,28.1
									c-2.4,18.7-6.2,37.2-11.2,55.3C-3.6,348.4-6.8,358.5-10.3,368.5z"/>
							</g>
							<g>
								<path class="st2" d="M2.5,317.2c1-2,2.2-3.8,3.8-5.4c1.6-1.5,3.5-2.8,5.7-3.2c1.1-0.2,2.2-0.2,3.3-0.1
									c1.1,0.1,2.1,0.2,3.2,0.3c2.1,0.2,4.3,0.5,6.4,0.9c4.2,0.7,8.5,1.5,12.5,3c2,0.7,4,1.6,5.8,2.7c1.8,1.2,3.6,2.5,4.7,4.4
									l-0.1,0.1c-1.1-1.8-2.9-3.1-4.7-4.2s-3.8-2-5.8-2.7c-4-1.4-8.3-2.2-12.5-2.7c-2.1-0.3-4.2-0.5-6.4-0.7
									c-1.1-0.1-2.1-0.2-3.2-0.2c-1.1-0.1-2.1-0.1-3.1,0.1c-2,0.4-3.8,1.6-5.3,3.1c-1.4,1.5-2.6,3.3-3.5,5.1L2.5,317.2z"/>
							</g>
							<g>
								<path class="st2" d="M62.9,293.1l-1.2-1.1c-0.1-0.1-8-7.6-19.2-13.4l0,0c-11.3-5.9-18.4-15-18.5-15.1l-0.7-0.9l1.1,0.1
									c0.1,0,11.6,0.7,22.9,6.7c11.4,6,15,21.6,15.2,22.2L62.9,293.1z M25.5,263.8c2.1,2.4,8.4,9.2,17.4,13.9l0,0
									c8.7,4.6,15.4,10.1,18.1,12.4c-1.2-4.2-5.3-15.3-14.2-19.9C37.9,265.5,28.7,264.1,25.5,263.8z"/>
							</g>
							<g>
								<path class="st2" d="M11,268.3c1.5-1.7,3.2-3.2,5.2-4.3c2-1.1,4.2-1.8,6.5-1.5c1.1,0.1,2.2,0.5,3.3,0.9
									c1,0.4,2.1,0.8,3.1,1.1c2,0.8,4.1,1.6,6.1,2.5c4,1.8,8,3.8,11.6,6.3c1.8,1.2,3.6,2.6,5.2,4c1.6,1.5,3.2,3.1,4.3,5l-0.1,0.1
									c-1.2-1.8-2.7-3.4-4.3-4.9s-3.4-2.8-5.2-4c-3.6-2.4-7.6-4.4-11.6-6.1c-2-0.9-4.1-1.7-6.1-2.4c-1-0.4-2.1-0.7-3.1-1.1
									c-1-0.3-2.1-0.7-3.1-0.8c-2.1-0.2-4.2,0.5-6,1.6s-3.5,2.5-4.8,4.2L11,268.3z"/>
							</g>
							<g>
								<path class="st2" d="M6.9,297c-1-5-2-9.9-3.4-14.8c-0.4-1.2-0.7-2.4-1.2-3.6s-1-2.2-1.9-3.1c-1.7-1.8-3.9-3-6.2-4.1
									c-4.5-2.2-9.3-4.1-13.6-6.8c-4.3-2.7-8.1-6.3-11.2-10.3l0.2-0.1c3.2,3.9,7,7.4,11.3,10s9.1,4.4,13.7,6.6
									c2.3,1.1,4.6,2.3,6.5,4.2c0.5,0.5,0.9,1,1.2,1.6c0.2,0.3,0.3,0.6,0.5,0.9c0.1,0.3,0.3,0.6,0.4,0.9c0.5,1.2,0.9,2.4,1.3,3.7
									C5.9,287,7,292,7.9,297L6.9,297z"/>
							</g>
							<g>
								<g>
									<path class="st2" d="M39.7,238.6l-0.4-1.6c0-0.1-3-10.6-9.6-21.4l0,0c-6.7-10.9-8.1-22.3-8.1-22.4l-0.1-1.1l0.9,0.6
										c0.1,0.1,9.6,6.6,16.3,17.5c6.7,11,1.8,26.2,1.6,26.8L39.7,238.6z M22.7,194.3c0.6,3.2,2.5,12.2,7.8,20.9l0,0
										c5.1,8.3,8.1,16.6,9.2,20c1.1-4.2,3.3-15.8-2-24.4C32.4,202,25.3,196.2,22.7,194.3z"/>
								</g>
								<g>
									<path class="st2" d="M4.7,187.3c2.1-0.8,4.4-1.2,6.6-1.2s4.6,0.6,6.4,1.9c0.9,0.7,1.7,1.5,2.4,2.4c0.7,0.8,1.4,1.7,2.1,2.5
										c1.4,1.7,2.7,3.5,4,5.2c2.6,3.5,5,7.2,6.9,11.2c1,2,1.8,4,2.5,6.1s1.2,4.2,1.3,6.5c0,0,0,0.1-0.1,0.1c0,0-0.1,0-0.1-0.1
										l0,0c-0.1-2.2-0.7-4.3-1.3-6.4c-0.7-2.1-1.6-4.1-2.5-6c-1.9-3.9-4.4-7.6-7.1-11c-1.3-1.7-2.7-3.5-4.1-5.1
										c-0.7-0.8-1.4-1.7-2.1-2.5s-1.4-1.6-2.3-2.2c-1.7-1.2-3.9-1.7-6-1.7s-4.3,0.5-6.2,1.2l0,0c-0.3,0.1-0.5,0-0.6-0.3
										S4.4,187.4,4.7,187.3L4.7,187.3z"/>
								</g>
							</g>
							<g>
								<path class="st2" d="M5.2,237.3l-1-0.5c-0.2-0.1-6-3-10.8-8.7c-4.6-5.6-9.7-9.1-9.8-9.2l-1.4-0.9h1.6c0.4,0,9.7,0.2,14.5,6
									c4.7,5.7,6.4,11.9,6.5,12.2L5.2,237.3z M-14.3,219.2c1.9,1.5,5.4,4.4,8.6,8.3l0,0c3.4,4.1,7.4,6.7,9.3,7.8
									c-0.7-2.1-2.5-6.6-5.9-10.7C-5.6,220.7-11.5,219.5-14.3,219.2z"/>
							</g>
							<g>
								<path class="st2" d="M11.7,250.8l-7.4-14.3l0,0c-2-3-4-5.9-6.2-8.8c-0.5-0.7-1.1-1.4-1.6-2.1c-0.6-0.7-1.2-1.3-1.9-1.8
									c-1.4-1.1-3-1.9-4.7-2.5l0,0l0,0c1.7,0.6,3.3,1.4,4.8,2.4c0.7,0.5,1.4,1.1,2,1.8s1.1,1.4,1.7,2.1c2.2,2.8,4.3,5.8,6.3,8.7
									l0,0l0,0l7.9,14.1c0.1,0.2,0,0.5-0.2,0.7S11.8,251.1,11.7,250.8L11.7,250.8z"/>
							</g>
						</g>
					</g>
				</g>
			</g>
		</g>
		<path class="st3" d="M136,395c1.8,6.8-0.3,28.2-0.3,28.2l0,0c1.8-7.6,4.3-15.1,8.3-18.2c17-13,24-1,45-19
			c36.4-31.2-13.3-55.6-5.3-59.6c10.3-5.1,24.8,3.1,33.3,0.6c8.3-2.4,7.7-16.8,11-22c9-14,17-7,21-25c1-4.3-2-8,5-17
			c3.8-4.9,20-26,38-23c1.3,0.2,2.6,0.8,3.7,1.6l0,0c0,0-0.2-12.1-27.7-22.6c-63.3-24.2-116.5-15.5-142,11
			c-34.8,36.2-28.5,95.5-7.5,129.5C123.8,368.1,133.4,385.3,136,395z"/>
		<path class="st3" d="M118.5,359.5c-4.5-7.2-8.3-15.6-11.1-24.6c-21.3,1.6-53,28.5-35.4,51.3c27.6,35.9,61.1,14.9,57.9-6.3
			C126,372.3,121.5,364.5,118.5,359.5z"/>
		<path class="st4" d="M287.9,599.5c-6.5-13.7-13.6-28.2-18-35.5c-10.3-17.2-38.3-46.9-47-65c-2.5-5.1-6-16.3-6-22s3.8-16.7,6-22
			c3.7-8.8,12.1-26.5,19-33c2.4-2.3,8.7-5.4,12-6c12.3-2.4,37.9,7.3,50,4c5.5-1.5,11.5-4.5,12-18c0.1-2.8-4-5.2-4-8c0-2.5,4-2,4-6
			c0-6-13.5-7.5-13-10s12.5-3.5,16-14c0.8-2.5-3.6-7.5-3-10c1.1-4.5,12.7-8.4,13-13c0.7-10-21.8-22.2-24-32c-1-4.7,4-9,4-19
			c0-13.2-4-47.8-17-50c-18-3-34.2,18.1-38,23c-7,9-4,12.7-5,17c-4,18-12,11-21,25c-3.3,5.2-2.9,18.9-11,22
			c-7.2,2.7-19-16.7-33.8,0.4c-20,23.1,46.9,24,5.8,58.6c-21.2,17.8-28,6-45,19c-7.4,5.7-9.6,26-12,35c-3,11.1-13.7,31.8-19,42
			c-7.6,14.7-17.7,23.3-30,59c-6.2,17.8-7.1,44.4-7.1,58.5H287.9z"/>
		<g>
			<path class="st5" d="M202.4,367.3c3.5,17.7,19.5,40.7,57.7,47.9c0,0-21.2-5.2-36.2-19.2S202.4,367.3,202.4,367.3z"/>
		</g>
		<path class="st5" d="M188.3,322c-3.2,1.6-6.7,5.5-7.4,8.8c0.8-1.7,8.1-9.9,17.5-9c1.6,0.2,5.1,0.9,7.2,2.2
			C202.5,321.2,195.6,318.3,188.3,322z"/>
		<path class="st5" d="M194,209.5c22.9-3.5,50.9-0.3,79.9,12.5c7.6,3.4,11.7,7.7,16,12c7,7-3.1,3.2-9,7c0.4,0.2,7-4,13,0l1.7,0.6
			c0,0-0.2-12.1-27.7-22.6c-63.3-24.2-116.5-15.5-142,11c-27.4,28.5-29.3,71.4-18.6,104.9c-5.4-20.6-6.3-49.6,2.2-70.5
			C118.6,242.4,127.1,219.6,194,209.5z"/>
		<path class="st5" d="M180.7,339.5c5.1,8.2,3.8,5.7,10.9,11c1.2,0.9,2.6,2.3,3.7,3.1c2.7,2,5.2,3,6.7,5.2c1.3,1.8,1.3,2,1.4,4.1
			C209.8,346.9,191.1,354.6,180.7,339.5z"/>
		<g>
			<path class="st5" d="M303.8,419.5c5.6-1.5,10.9-4.7,11.6-16.7c0,0-3,14.7-19.4,15.9c-5.8,0.4-21.7-3.6-27.6-4.2
				c-5.1-0.5-18.2-2.6-18.2-2.6l7.7,3.2c5.6-0.1,12.6,1.2,19.9,2.5C287.6,419.4,297.6,421.2,303.8,419.5z"/>
		</g>
		<g>
			<path class="st5" d="M253.7,262.6c4.1-5.2,9.1-10.8,14.7-15.2c0,0-12.7,7.9-15.1,10.6c-10,11.4-7,28.7-12.6,32.4
				c-5,3.3-16.4,5.3-17,16.3c-0.7,12.7-5.4,19.2-5.4,19.2c4-2.2,5.4-8.1,6.6-13.3c0.7-3.1,1.4-6,2.6-7.9c3.9-6.1,7.6-8.3,10.9-10.2
				c4.3-2.5,7.8-4.5,10-14.6c0.3-1.1,0.2-2.3,0.2-3.5c-0.1-3.2-0.2-7.1,4.9-13.7L253.7,262.6z"/>
		</g>
		<g>
			<path class="st5" d="M298.3,245.1c0,0,2.7,4.4,4.4,11.1c1.6,6.3,2.7,12.4,4.3,23.5c1.4,9.9-0.2,19.6-0.2,19.6
				c0.8-2.5,1.6-5.4,1.6-9.2C308.5,280,305.9,255.4,298.3,245.1z"/>
		</g>
		<path class="st5" d="M72.4,381.9c-2.1-3.6-8.2-19,6.2-33.2c-16,14.3-8.6,32.6-7.4,34.3c17.8,25.6,40,25.2,51.1,13.9
			C110.8,407.1,87.5,407.9,72.4,381.9z"/>
		<g>
			<path class="st5" d="M216.6,492.3c4.1,7.5,15.5,21.6,15.5,21.6c-3.8-5.4-7.1-10.5-9.2-14.9c-2.5-5.1-6-16.3-6-22s3.8-16.7,6-22
				c3.1-7.4,9.5-21.1,15.6-29.1C238.6,425.9,204.7,470.3,216.6,492.3z"/>
		</g>
		<path class="st6" d="M319,364c-3.5,10.5-15.5,11.5-16,14c0,0.2,0,0.3,0.1,0.5c1.1,2.1,11.3,3.7,12.7,8.4l0,0v0.1
			c0,0.1,0.1,0.3,0.1,0.4c0,0.2,0,0.3,0,0.5l0,0c7.1-7.6-2.5-10.5-2.5-11.5C313.5,375.5,325.9,370.7,319,364L319,364z"/>
		<line class="st7" x1="303.5" y1="378.5" x2="313.5" y2="376.5"/>
		<path class="st7" d="M201.5,364.5c0,0,16,48,73,53"/>
		<path d="M71,385.8c-12.1-16.8,1.2-44.1,30.3-49.9c1.5-0.3,3.4-0.9,6-1.4l0.4-0.1l0.1,0.4c2.9,9,6.6,17.3,11.1,24.5
			c1.5,2.4,6.7,10.9,11.3,20.4l0.1,0.3l-0.2,0.2C133.6,401,100,426.1,71,385.8z M129.2,379.8c-4.6-9.3-9.7-17.7-11.2-20l0,0
			c-4.5-7.2-8.2-15.4-11.1-24.3c-2.3,0.5-4,1.1-5.3,1.5c-44.3,12.8-32,43.8-30.5,46.1C95.9,418.7,129.2,403.9,129.2,379.8z"/>
		<path d="M249.9,536.1c-10.6-13.4-21.6-27.2-26.5-37.3c-2.4-5-6-16.2-6-21.8c0-5.5,3.7-16.3,6-21.8c3.8-9.2,12.1-26.4,18.9-32.8
			c2.3-2.2,8.4-5.2,11.8-5.9c5.8-1.1,14.9,0.5,23.7,2.1c9.8,1.8,19.9,3.6,26.4,1.9c6.1-1.7,11.9-5.1,12.4-18.5c0.1-1.6-1-3-2.1-4.4
			c-1-1.3-1.9-2.4-1.9-3.6c0-0.8,0.5-1.2,1.4-1.8c1.1-0.8,2.6-1.7,2.6-4.2c0-3.9-4.9-6-8.9-7.6c-1.8-0.7-4.2-1.7-4.1-2.3
			c0.1-0.6,1.7-1.3,3.4-2.1c4.1-1.9,10.2-4.7,12.6-11.9c0.5-1.5-0.5-3.4-1.5-5.5c-0.9-1.7-1.7-3.5-1.5-4.6c0.5-2,3.4-4,6.2-5.9
			c3.4-2.3,6.6-4.6,6.8-7.2c0.4-5.6-6.1-11.8-12.5-17.8c-5.2-4.9-10.6-10-11.5-14.3c-0.5-2,0.3-4.1,1.3-6.6c1.2-3,2.7-6.8,2.7-12.3
			c0-14.9-4.4-48.3-17.4-50.5c-8.3-1.4-21.6,1.5-38.4,23l-0.1,0.2c-5.2,6.6-5,10.6-4.9,13.7c0,1.2,0.1,2.3-0.2,3.5
			c-2.2,10.1-5.7,12.1-10,14.6c-3.3,1.9-7,4.1-10.9,10.2c-1.2,1.8-1.9,4.8-2.6,7.9c-1.4,5.8-2.9,12.5-8.1,13.9
			c-8.7,2.3-19-17.2-33.4-0.6c-10.6,12.2,0.1,19.3,8.4,25.4c6.3,4.6,9.5,10.5,9.7,15.9c0.2,4.9-3.9,10.8-12.8,18.4
			c-11.3,9.7-18.5,10.6-25.4,11.5c-6,0.8-11.7,1.5-19.6,7.5c-5.8,4.4-8.3,17.1-10.4,27.2c-0.6,3-1.2,5.9-1.8,8.1
			c-3,11.2-13.8,31.9-19,41.9c-2.2,4.3-4.7,8.2-7.4,12.2c-6.2,9.6-14,21.6-22.7,46.8c-6.1,17.8-7.1,44.2-7.2,58.7h1
			c0-14.4,1-40.7,7.1-58.3c8.7-25.1,16.1-36.6,22.6-46.6c2.6-4.1,5.1-7.9,7.4-12.3c5.2-10,16-30.8,19-42.1c0.6-2.2,1.2-5.1,1.8-8.1
			c1.9-9.5,4.6-22.4,10-26.6c7.7-5.9,13.2-6.6,19.1-7.3c7.1-0.9,14.4-1.8,25.9-11.7c9.2-7.9,13.4-14,13.2-19.2
			c-0.2-5.9-3.6-11.9-10.1-16.7c-8.5-6.3-17.5-11.8-9.4-22.7c12.3-16.7,26.9,1.8,34.2-0.3c5.7-1.7,7.4-8.6,8.8-14.6
			c0.7-3,1.4-5.9,2.5-7.6c3.8-5.9,7.4-8,10.6-9.9c4.4-2.6,8.1-4.8,10.5-15.3c0.3-1.3,0.2-2.5,0.2-3.7c-0.1-3.2-0.2-6.7,4.7-13.1
			l0.1-0.2c16.4-21.1,29.4-24,37.4-22.7c12.7,2.1,16.6,37,16.6,49.5c0,5.3-1.4,9-2.6,11.9c-1.1,2.7-1.9,4.8-1.4,7.2
			c1,4.6,6.3,9.6,11.8,14.8c6.2,5.8,12.5,11.9,12.2,17c-0.2,2.1-3.3,4.3-6.4,6.4s-6,4.2-6.6,6.5c-0.4,1.4,0.6,3.3,1.6,5.3
			c0.9,1.8,1.8,3.6,1.5,4.7c-2.3,6.8-8.2,9.5-12.1,11.3c-2.2,1-3.7,1.7-3.9,2.8c-0.3,1.4,1.8,2.3,4.7,3.4c3.7,1.5,8.3,3.4,8.3,6.7
			c0,2-1,2.7-2.1,3.4c-0.9,0.6-1.9,1.2-1.9,2.6c0,1.6,1.1,2.9,2.1,4.3c1,1.3,1.9,2.5,1.9,3.7c-0.5,12.8-5.9,16-11.6,17.5
			c-6.2,1.7-16.2-0.1-25.9-1.9c-9.3-1.7-18.1-3.3-24-2.1c-3.5,0.7-9.8,3.8-12.2,6.1c-6.9,6.5-15.3,23.9-19.1,33.2
			c-2.4,5.8-6,16.6-6,22.2c0,5.8,3.6,17.1,6,22.2c4.9,10.3,15.9,24.1,26.6,37.5c8.2,10.3,16,20.1,20.4,27.5
			c3.7,6.1,9.7,18,17.8,35.2h1.1c-8.3-17.5-14.4-29.5-18.1-35.8C265.9,556.3,258.1,546.5,249.9,536.1z"/>
		<path d="M180.5,599.5h1.1c2.2-6,11.9-34.3,10.1-60c0-0.3-0.3-0.5-0.5-0.5c-0.3,0-0.5,0.3-0.5,0.5
			C192.5,565.6,182.4,594.4,180.5,599.5z"/>
		<g>
			<path d="M106.6,335.1c0-0.1-3-10.7-4.7-24.6c-1.5-12.8-2.2-31.2,3.4-45.7c4.1-10.6,12.5-32.6,35.1-46.7
				c17.1-10.7,50.4-16.2,75.8-12.6c76.6,10.9,80,35.3,80.2,36.3l-1,0.1c0-0.2-3.6-24.7-79.3-35.4c-25.2-3.6-58.1,1.9-75.1,12.5
				c-22.3,13.9-30.7,35.7-34.7,46.2c-5.5,14.3-4.8,32.5-3.3,45.2c1.7,13.8,4.6,24.4,4.7,24.5L106.6,335.1z"/>
		</g>
		<path class="st6" d="M127.5,359.5c-3.6-12.1-13.6-17.4-19.9-23.8c-0.2-0.2-0.5-0.5-0.7-0.7c-1.1,0.2-2.2,0.5-3.3,0.8
			c0.3,5.5-0.2,12.8,1.8,17.8c5.1,12.6,15.9,30.4,21.4,38.8c2-1.7,2.9-6.5,3.1-11C129.9,380.8,130.4,369.5,127.5,359.5z"/>
		<g>
			<g>
				<path class="st8" d="M205.8,369.2c-3.2-3.2-8.4-3.2-11.6,0c-1.6,1.6-2.4,3.7-2.4,5.8l0,0v30.5h4.7v-27.8c0-1.9,1.6-3.5,3.5-3.5
					s3.5,1.6,3.5,3.5v27.8h4.7V375C208.1,372.9,207.3,370.8,205.8,369.2z"/>
				<g>
					<path d="M205.6,369.3c-1.1-1.1-2.6-1.9-4.1-2.1c-0.8-0.1-1.6-0.1-2.3-0.1c-0.8,0.1-1.5,0.3-2.2,0.6c-1.4,0.6-2.6,1.7-3.4,2.9
						c-0.8,1.3-1.3,2.8-1.4,4.3l0,0l-0.3,0.3l0.3-0.3c-0.1,2.5-0.2,5.1-0.2,7.6c-0.1,2.5-0.1,5.1-0.1,7.6s0,5.1,0,7.6
						c0.1,2.5,0.1,5.1,0.3,7.6l0,0l-0.3-0.3h4.6l0,0l-0.3,0.3c0.1-2.8,0.2-5.6,0.2-8.3c0-2.8,0.1-5.6-0.1-8.3
						c-0.1-2.8-0.1-5.6-0.1-8.3v-2.1c0-0.7,0-1.5,0.3-2.2c0.6-1.4,2-2.4,3.5-2.3c1.5,0,2.9,0.9,3.5,2.3c0.1,0.3,0.2,0.7,0.3,1.1
						c0,0.4,0,0.7,0,1.1v2.1v8.3c0,5.6,0.5,11.1,0.1,16.7l0,0l-0.3-0.3l4.6,0.1l0,0l-0.2,0.2c-0.1-3.1,0-6.1,0-9.2l0.1-9.2
						c0-3.1-0.1-6.1-0.2-9.2v-2.3c0-0.8,0-1.5-0.2-2.2C207.4,371.8,206.7,370.4,205.6,369.3z M205.9,369.1c1.1,1.1,1.9,2.5,2.3,4
						c0.2,0.8,0.2,1.6,0.2,2.3v2.3c0,3.1-0.2,6.1-0.2,9.2l0.1,9.2c0,3.1,0,6.1,0,9.2v0.2h-0.2l0,0l-4.6,0.1h-0.3v-0.4l0,0
						c-0.4-5.6,0.1-11.1,0.1-16.7v-8.3v-2.1c0-0.7,0-1.4-0.2-2c-0.5-1.2-1.7-2.1-3-2c-1.3,0-2.5,0.9-3,2.1c-0.3,0.6-0.2,1.2-0.2,1.9
						v2.1c0,2.8,0,5.6-0.1,8.3c-0.1,2.8-0.1,5.6-0.1,8.3c0,2.8,0.1,5.6,0.2,8.3v0.3h-0.4l0,0h-4.6h-0.5V405l0,0
						c0.2-2.5,0.2-5.1,0.3-7.6c0-2.5,0.1-5.1,0-7.6c0-2.5,0-5.1-0.1-7.6c0-2.5-0.1-5.1-0.2-7.6l0.3-0.3l-0.3,0.3l0,0
						c-0.1-1.7,0.4-3.4,1.4-4.8c0.9-1.4,2.3-2.5,3.9-3.1c0.8-0.3,1.6-0.5,2.4-0.6s1.7,0,2.5,0.2s1.6,0.5,2.3,0.9
						C204.6,368,205.3,368.5,205.9,369.1z"/>
				</g>
			</g>
			<g>
				<circle class="st0" cx="200" cy="357.4" r="8.2"/>
				<path d="M208.6,357.4c0.1,2.3-0.9,4.6-2.7,6c-0.9,0.7-1.8,1.2-2.8,1.7c-0.3,0.1-0.5,0.2-0.7,0.4c-0.3,0.1-0.5,0.2-0.8,0.3
					c-0.3,0.1-0.5,0.2-0.8,0.2s-0.6,0-0.8,0.1c-2.3,0.1-4.5-1-6-2.6c-1.4-1.7-2.3-3.8-2.4-6c0-2.2,0.8-4.4,2.4-6s3.8-2.4,6-2.4
					C204.4,348.9,208.5,352.8,208.6,357.4z M207.7,357.4c0.1-2-0.6-4.1-2.1-5.6s-3.5-2.4-5.6-2.4s-4.1,0.9-5.6,2.4
					c-1.4,1.5-2.3,3.5-2.4,5.6c0,1,0.2,2.1,0.6,3.1c0.3,1,1.1,1.8,1.8,2.5c1.5,1.4,3.5,2.1,5.5,2.2c0.3,0,0.5,0,0.8,0s0.5,0,0.8,0
					c0.5,0,1-0.1,1.5-0.2c1-0.4,1.8-1.1,2.5-1.9C206.8,361.3,207.6,359.4,207.7,357.4z"/>
			</g>
			<path class="st0" d="M200.7,368.3L200.7,368.3c-0.4,0-0.8-0.3-0.8-0.8v-2.3c0-0.4,0.3-0.8,0.8-0.8l0,0c0.4,0,0.8,0.3,0.8,0.8v2.3
				C201.5,368,201.1,368.3,200.7,368.3z"/>
		</g>
		<path class="st8" d="M238.2,143.4c-38.5,0-69.7-31.2-69.7-69.7c0-17,6.1-32.6,16.2-44.7c-27,9.6-46.3,35.4-46.3,65.6
			c0,38.5,31.2,69.7,69.7,69.7c21.5,0,40.6-9.7,53.4-25C254.2,142,246.4,143.4,238.2,143.4z"/>
		<g>
			<path class="st5" d="M113.4,482.3c-2.3,4.4-4.8,8.2-7.4,12.3c-6.5,10.1-13.9,21.5-22.6,46.6c-6.1,17.7-7.1,44.3-7.1,58.3h0.8
				c0.8-10.3,2.1-26.3,3.2-31.4c2.3-10.8,6.1-22.7,9.5-33.2c4-12.6,18.6-32.1,24-44.1c4-8.8,12.4-32.5,16.2-43.6
				C125.6,458.7,117.7,474.1,113.4,482.3z"/>
			<path class="st5" d="M130.1,447.1c0.8-2.1,1.5-4.1,2.1-5.9C132.2,441.2,131.4,443.5,130.1,447.1z"/>
		</g>
	</g>
</g>
<g id="circle">
</g>
</svg>
