<?xml version="1.0" encoding="utf-8"?>
<!-- Generator: Adobe Illustrator 24.0.3, SVG Export Plug-In . SVG Version: 6.00 Build 0)  -->
<svg version="1.1" id="Layer_1" xmlns="http://www.w3.org/2000/svg" xmlns:xlink="http://www.w3.org/1999/xlink" x="0px" y="0px"
	 viewBox="0 0 700 700" style="enable-background:new 0 0 700 700;" xml:space="preserve">
<style type="text/css">
	.st0{fill:#D6DDD8;}
	.st1{clip-path:url(#SVGID_2_);}
	.st2{fill:#CE7D5D;}
	.st3{fill:#351D1A;}
	.st4{fill:#F7D1BA;}
	.st5{fill:#FFFFFF;}
	.st6{fill:#CE7D5D;stroke:#000000;stroke-miterlimit:10;}
	.st7{fill:none;stroke:#000000;stroke-miterlimit:10;}
	.st8{fill:#557571;}
</style>
<g id="earrings">
	<g>
		<path class="st0" d="M555.7,626.9h-400V227.4c0-110.5,89.5-200,200-200l0,0c110.5,0,200,89.5,200,200V626.9z"/>
		<g>
			<g>
				<defs>
					<path id="SVGID_1_" d="M555.7,626.9h-400V227.4c0-110.5,89.5-200,200-200l0,0c110.5,0,200,89.5,200,200V626.9z"/>
				</defs>
				<clipPath id="SVGID_2_">
					<use xlink:href="#SVGID_1_"  style="overflow:visible;"/>
				</clipPath>
				<g class="st1">
					<g>
						<g>
							<path class="st2" d="M168.5,589.5l0.7-2c0.1-0.2,1.6-4.3,4.6-8.9c4.1-6.1,9-10,14.2-11.2c12.4-2.9,23.7-0.7,23.9-0.6l1.1,0.2
								l-0.9,0.7c-0.1,0.1-9.3,7-21.7,9.9l0,0c-12.2,2.8-20.3,10.4-20.4,10.5L168.5,589.5z M201.6,566.9c-3.9,0-8.5,0.3-13.3,1.5
								c-9.6,2.2-15.4,13.2-17.4,17.6c3-2.4,10-7.3,19.3-9.4c9.9-2.3,17.7-7.2,20.4-9.1C208.9,567.3,205.7,566.9,201.6,566.9z"/>
						</g>
						<g>
							<path class="st2" d="M226,532.7l0.6-0.9c0.1-0.1,6.7-9.5,17.6-16.1c10.8-6.5,22.1-17.6,22.2-17.7l1.5-1.5l-0.7,2
								c-0.3,0.8-6.7,19.6-17.7,26.2l0,0c-11,6.5-22.4,7.9-22.5,7.9L226,532.7z M265.6,500.2c-3.5,3.3-12.3,11.3-20.8,16.4
								c-8.7,5.2-14.7,12.3-16.6,14.8c3.2-0.5,12.2-2.4,21-7.6l0,0C257.7,518.7,263.6,505.3,265.6,500.2z"/>
						</g>
						<g>
							<path class="st2" d="M236.3,626.9h3.5c-3.8-10.2-7.2-20.6-10.2-31.1c-5.2-18-9.2-36.3-11.8-54.8c-1.2-9.3-2.1-18.6-2.6-27.9
								c-0.4-9.3-0.3-18.7,0.3-28c0.7-9.3,1.9-18.6,3.7-27.8c2-9.1,4.6-18.1,7.9-26.9l0,0c0.1-0.3,0-0.5-0.3-0.6s-0.5,0-0.6,0.3
								c-3.4,8.8-6.2,17.8-8.3,27c-1.9,9.2-3.3,18.5-4.1,27.9c-0.7,9.4-0.9,18.8-0.6,28.2c0.4,9.4,1.1,18.8,2.3,28.1
								c2.4,18.7,6.2,37.2,11.2,55.3C229.6,606.8,232.8,616.9,236.3,626.9z"/>
						</g>
						<g>
							<path class="st2" d="M222.6,576c-0.8-1.9-2-3.7-3.5-5.1c-1.4-1.5-3.2-2.7-5.3-3.1c-1-0.2-2-0.2-3.1-0.1
								c-1.1,0.1-2.1,0.1-3.2,0.2c-2.1,0.2-4.2,0.4-6.4,0.7c-4.2,0.6-8.4,1.4-12.5,2.7c-2,0.7-4,1.6-5.8,2.7
								c-1.8,1.1-3.6,2.4-4.7,4.2l-0.1-0.1c1.1-1.9,2.9-3.2,4.7-4.4c1.8-1.1,3.8-2,5.8-2.7c4.1-1.4,8.3-2.3,12.5-3
								c2.1-0.3,4.2-0.6,6.4-0.9c1.1-0.1,2.1-0.2,3.2-0.3s2.2-0.2,3.3,0.1c2.2,0.4,4.2,1.7,5.7,3.2c1.6,1.6,2.8,3.4,3.8,5.4
								L222.6,576z"/>
						</g>
						<g>
							<path class="st2" d="M163.1,551.6l0.4-1.6c0.1-0.7,3.7-16.2,15.2-22.2c11.3-5.9,22.8-6.6,22.9-6.7l1.1-0.1l-0.7,0.9
								c-0.1,0.1-7.2,9.2-18.5,15.1c-11.1,5.9-19.1,13.4-19.2,13.4L163.1,551.6z M200.4,522.2c-3.2,0.3-12.3,1.7-21.3,6.4
								c-8.9,4.7-13,15.8-14.2,19.9c2.7-2.4,9.5-7.9,18.1-12.5C192,531.4,198.3,524.6,200.4,522.2z"/>
						</g>
						<g>
							<path class="st2" d="M214.2,527.4c-1.3-1.6-3-3.1-4.8-4.2c-1.8-1.1-3.9-1.7-6-1.6c-1,0.1-2.1,0.4-3.1,0.8
								c-1,0.3-2.1,0.7-3.1,1.1c-2.1,0.8-4.1,1.6-6.1,2.4c-4,1.7-8,3.6-11.6,6.1c-1.8,1.2-3.6,2.5-5.2,4s-3.2,3-4.3,4.9l-0.1-0.1
								c1.2-1.9,2.7-3.5,4.3-5c1.6-1.5,3.4-2.8,5.2-4c3.6-2.5,7.6-4.5,11.6-6.3c2-0.9,4-1.7,6.1-2.5c1-0.4,2.1-0.8,3.1-1.1
								c1-0.4,2.1-0.7,3.3-0.9c2.3-0.3,4.6,0.4,6.5,1.5c2,1.1,3.7,2.6,5.2,4.3L214.2,527.4z"/>
						</g>
						<g>
							<path class="st2" d="M218.1,555.2c0.9-5,2-10,3.4-14.9c0.4-1.2,0.7-2.4,1.3-3.7c0.1-0.3,0.3-0.6,0.4-0.9
								c0.1-0.3,0.3-0.6,0.5-0.9c0.4-0.6,0.8-1.1,1.2-1.6c1.9-1.9,4.2-3.1,6.5-4.2c4.6-2.2,9.4-3.9,13.7-6.6c4.3-2.6,8.2-6,11.3-10
								l0.2,0.1c-3.1,4.1-6.9,7.6-11.2,10.3c-4.3,2.7-9.1,4.6-13.6,6.8c-2.2,1.1-4.5,2.4-6.2,4.1c-0.8,0.9-1.4,1.9-1.9,3.1
								c-0.5,1.1-0.8,2.4-1.2,3.6c-1.4,4.9-2.4,9.8-3.4,14.8L218.1,555.2z"/>
						</g>
						<g>
							<g>
								<path class="st2" d="M186.3,497l-0.5-1.6c-0.2-0.6-5.1-15.8,1.6-26.8c6.7-10.9,16.2-17.4,16.3-17.5l0.9-0.6l-0.1,1.1
									c0,0.1-1.5,11.6-8.1,22.4l0,0c-6.6,10.7-9.6,21.3-9.6,21.4L186.3,497z M203.3,452.7c-2.6,1.9-9.7,7.8-15,16.4
									c-5.2,8.6-3,20.2-2,24.4c1.1-3.4,4.1-11.6,9.2-20C200.7,464.9,202.7,455.9,203.3,452.7z"/>
							</g>
							<g>
								<path class="st2" d="M220.9,446.7c-2-0.8-4.1-1.2-6.2-1.2s-4.3,0.5-6,1.7c-0.9,0.6-1.6,1.4-2.3,2.2
									c-0.7,0.8-1.4,1.6-2.1,2.5c-1.4,1.7-2.8,3.4-4.1,5.1c-2.7,3.5-5.1,7.1-7.1,11c-1,2-1.9,4-2.5,6c-0.7,2.1-1.2,4.2-1.3,6.4
									l0,0c0,0,0,0.1-0.1,0.1c0,0-0.1,0-0.1-0.1c0.1-2.2,0.6-4.4,1.3-6.5c0.7-2.1,1.5-4.1,2.5-6.1c1.9-4,4.3-7.7,6.9-11.2
									c1.3-1.8,2.6-3.5,4-5.2c0.7-0.9,1.4-1.7,2.1-2.5s1.5-1.7,2.4-2.4c1.9-1.4,4.2-1.9,6.4-1.9c2.3,0,4.5,0.4,6.6,1.2
									c0.3,0.1,0.4,0.4,0.3,0.6C221.5,446.6,221.2,446.8,220.9,446.7L220.9,446.7L220.9,446.7z"/>
							</g>
						</g>
						<g>
							<path class="st2" d="M220.8,495.7l0.3-1.1c0.1-0.3,1.8-6.5,6.5-12.2c4.8-5.8,14.1-6,14.4-6h1.6l-1.4,0.9
								c-0.1,0-5.2,3.6-9.8,9.2l0,0c-4.7,5.7-10.5,8.6-10.8,8.7L220.8,495.7z M240.3,477.6c-2.9,0.3-8.7,1.5-12,5.5
								c-3.4,4.1-5.2,8.6-5.9,10.7c1.9-1.1,6-3.7,9.3-7.8C235,482,238.5,479.1,240.3,477.6z"/>
						</g>
						<g>
							<path class="st2" d="M213.4,508.8l7.9-14.1l0,0l0,0c2.1-2.9,4.1-5.8,6.3-8.7c0.5-0.7,1.1-1.4,1.7-2.1c0.6-0.7,1.3-1.3,2-1.8
								c1.5-1,3.1-1.9,4.8-2.4l0,0l0,0c-1.7,0.6-3.3,1.5-4.7,2.5c-0.7,0.5-1.4,1.1-1.9,1.8c-0.6,0.7-1.1,1.4-1.6,2.1
								c-2.1,2.9-4.1,5.8-6.2,8.8l0,0l-7.4,14.3c-0.1,0.2-0.4,0.3-0.7,0.2C213.4,509.3,213.3,509,213.4,508.8L213.4,508.8z"/>
						</g>
					</g>
					<g>
						<g>
							<path class="st2" d="M471.9,592.2l-1.5-1.4c-0.1-0.1-8.2-7.7-20.4-10.5l0,0c-12.4-2.9-21.6-9.9-21.7-9.9l-0.9-0.7l1.1-0.2
								c0.1,0,11.4-2.2,23.9,0.6c5.2,1.2,10.1,5.1,14.2,11.2c3.1,4.6,4.6,8.8,4.6,8.9L471.9,592.2z M450.2,579.3
								c9.3,2.2,16.3,7,19.3,9.4c-2-4.4-7.8-15.4-17.4-17.6c-9.9-2.3-19.1-1.3-22.3-0.8C432.5,572.1,440.3,577,450.2,579.3
								L450.2,579.3z"/>
						</g>
						<g>
							<path class="st2" d="M414.4,535.4l-1.1-0.1c-0.1,0-11.6-1.3-22.5-7.9l0,0c-11-6.6-17.4-25.4-17.7-26.2l-0.7-2l1.5,1.5
								c0.1,0.1,11.4,11.3,22.2,17.7c11,6.5,17.6,16,17.6,16.1L414.4,535.4z M391.3,526.5c8.7,5.2,17.8,7.1,21,7.6
								c-2-2.5-7.9-9.6-16.6-14.8c-8.5-5.1-17.3-13.1-20.8-16.4C376.8,508,382.7,521.4,391.3,526.5L391.3,526.5z"/>
						</g>
						<g>
							<path class="st2" d="M404.1,629.6h-3.5c3.8-10.2,7.2-20.6,10.2-31.1c5.2-18,9.2-36.3,11.8-54.8c1.2-9.3,2.1-18.6,2.6-27.9
								c0.4-9.3,0.3-18.7-0.3-28c-0.7-9.3-1.9-18.6-3.7-27.8c-2-9.1-4.6-18.1-7.9-26.9l0,0c-0.1-0.3,0-0.5,0.3-0.6s0.5,0,0.6,0.3
								c3.4,8.8,6.2,17.8,8.3,27c1.9,9.2,3.3,18.5,4.1,27.9c0.7,9.4,0.9,18.8,0.6,28.2c-0.4,9.4-1.1,18.8-2.3,28.1
								c-2.4,18.7-6.2,37.2-11.2,55.3C410.8,609.5,407.6,619.6,404.1,629.6z"/>
						</g>
						<g>
							<path class="st2" d="M416.9,578.3c1-2,2.2-3.8,3.8-5.4c1.6-1.5,3.5-2.8,5.7-3.2c1.1-0.2,2.2-0.2,3.3-0.1
								c1.1,0.1,2.1,0.2,3.2,0.3c2.1,0.2,4.3,0.5,6.4,0.9c4.2,0.7,8.5,1.5,12.5,3c2,0.7,4,1.6,5.8,2.7c1.8,1.2,3.6,2.5,4.7,4.4
								l-0.1,0.1c-1.1-1.8-2.9-3.1-4.7-4.2c-1.8-1.1-3.8-2-5.8-2.7c-4-1.4-8.3-2.2-12.5-2.7c-2.1-0.3-4.2-0.5-6.4-0.7
								c-1.1-0.1-2.1-0.2-3.2-0.2c-1.1-0.1-2.1-0.1-3.1,0.1c-2,0.4-3.8,1.6-5.3,3.1c-1.4,1.5-2.6,3.3-3.5,5.1L416.9,578.3z"/>
						</g>
						<g>
							<path class="st2" d="M477.2,554.2l-1.2-1.1c-0.1-0.1-8-7.6-19.2-13.4l0,0c-11.3-5.9-18.4-15-18.5-15.1l-0.7-0.9l1.1,0.1
								c0.1,0,11.6,0.7,22.9,6.7c11.4,6,15,21.6,15.2,22.2L477.2,554.2z M439.9,524.9c2.1,2.4,8.4,9.2,17.4,13.9l0,0
								c8.7,4.5,15.4,10.1,18.1,12.4c-1.2-4.2-5.3-15.3-14.2-19.9C452.3,526.6,443.1,525.2,439.9,524.9z"/>
						</g>
						<g>
							<path class="st2" d="M425.4,529.4c1.5-1.7,3.2-3.2,5.2-4.3s4.2-1.8,6.5-1.5c1.1,0.1,2.2,0.5,3.3,0.9c1,0.4,2.1,0.8,3.1,1.1
								c2,0.8,4.1,1.6,6.1,2.5c4,1.8,8,3.8,11.6,6.3c1.8,1.2,3.6,2.6,5.2,4c1.6,1.5,3.2,3.1,4.3,5l-0.1,0.1
								c-1.2-1.8-2.7-3.4-4.3-4.9s-3.4-2.8-5.2-4c-3.6-2.4-7.6-4.4-11.6-6.1c-2-0.9-4.1-1.7-6.1-2.4c-1-0.4-2.1-0.7-3.1-1.1
								c-1-0.3-2.1-0.7-3.1-0.8c-2.1-0.2-4.2,0.5-6,1.6s-3.5,2.5-4.8,4.2L425.4,529.4z"/>
						</g>
						<g>
							<path class="st2" d="M421.3,558.1c-1-5-2-9.9-3.4-14.8c-0.4-1.2-0.7-2.4-1.2-3.6c-0.5-1.2-1-2.2-1.9-3.1
								c-1.7-1.8-3.9-3-6.2-4.1c-4.5-2.2-9.3-4.1-13.6-6.8c-4.3-2.7-8.1-6.3-11.2-10.3l0.2-0.1c3.2,3.9,7,7.4,11.3,10
								s9.1,4.4,13.7,6.6c2.3,1.1,4.6,2.3,6.5,4.2c0.5,0.5,0.9,1,1.2,1.6c0.2,0.3,0.3,0.6,0.5,0.9c0.1,0.3,0.3,0.6,0.4,0.9
								c0.5,1.2,0.9,2.4,1.3,3.7c1.4,4.9,2.5,9.9,3.4,14.9L421.3,558.1z"/>
						</g>
						<g>
							<g>
								<path class="st2" d="M454.1,499.7l-0.4-1.6c0-0.1-3-10.6-9.6-21.4c-6.7-10.9-8.1-22.3-8.1-22.4l-0.1-1.1l0.9,0.6
									c0.1,0.1,9.6,6.6,16.3,17.5c6.7,11,1.8,26.2,1.6,26.8L454.1,499.7z M437.1,455.4c0.6,3.2,2.5,12.2,7.8,20.9
									c5.1,8.3,8.1,16.6,9.2,20c1.1-4.2,3.3-15.8-2-24.4C446.8,463.1,439.7,457.3,437.1,455.4z"/>
							</g>
							<g>
								<path class="st2" d="M419.1,448.4c2.1-0.8,4.4-1.2,6.6-1.2c2.2,0,4.6,0.6,6.4,1.9c0.9,0.7,1.7,1.5,2.4,2.4
									c0.7,0.8,1.4,1.7,2.1,2.5c1.4,1.7,2.7,3.5,4,5.2c2.6,3.5,5,7.2,6.9,11.2c1,2,1.8,4,2.5,6.1s1.2,4.2,1.3,6.5
									c0,0,0,0.1-0.1,0.1c0,0-0.1,0-0.1-0.1l0,0c-0.1-2.2-0.7-4.3-1.3-6.4c-0.7-2.1-1.6-4.1-2.5-6c-1.9-3.9-4.4-7.6-7.1-11
									c-1.3-1.7-2.7-3.5-4.1-5.1c-0.7-0.8-1.4-1.7-2.1-2.5c-0.7-0.8-1.4-1.6-2.3-2.2c-1.7-1.2-3.9-1.7-6-1.7s-4.3,0.5-6.2,1.2l0,0
									c-0.3,0.1-0.5,0-0.6-0.3C418.7,448.8,418.8,448.5,419.1,448.4L419.1,448.4z"/>
							</g>
						</g>
						<g>
							<path class="st2" d="M419.6,498.4l-1-0.5c-0.2-0.1-6-3-10.8-8.7c-4.6-5.6-9.7-9.1-9.8-9.2l-1.4-0.9h1.6c0.4,0,9.7,0.2,14.4,6
								c4.7,5.7,6.4,11.9,6.5,12.2L419.6,498.4z M400,480.3c1.9,1.5,5.4,4.4,8.6,8.3c3.4,4.1,7.4,6.7,9.3,7.8
								c-0.7-2.1-2.5-6.6-5.9-10.7C408.7,481.8,402.9,480.6,400,480.3z"/>
						</g>
						<g>
							<path class="st2" d="M426.1,511.9l-7.4-14.3l0,0c-2-3-4-5.9-6.2-8.8c-0.5-0.7-1.1-1.4-1.6-2.1c-0.6-0.7-1.2-1.3-1.9-1.8
								c-1.4-1.1-3-1.9-4.7-2.5l0,0l0,0c1.7,0.6,3.3,1.4,4.8,2.4c0.7,0.5,1.4,1.1,2,1.8c0.6,0.7,1.1,1.4,1.7,2.1
								c2.2,2.8,4.3,5.8,6.3,8.7l0,0l0,0l7.9,14.1c0.1,0.2,0,0.5-0.2,0.7C426.5,512.3,426.2,512.2,426.1,511.9L426.1,511.9z"/>
						</g>
					</g>
					<g>
						<g>
							<path class="st2" d="M509.2,659.1l-0.3-2.1c0-0.1-1.7-11.1-9.6-20.9c-8-9.9-10.9-21.1-11-21.2l-0.3-1.1l1,0.5
								c0.1,0.1,10.4,5.3,18.4,15.2c3.4,4.2,4.8,10.3,4.3,17.6c-0.4,5.5-1.8,9.7-1.9,9.9L509.2,659.1z M489.7,615.8
								c1,3.1,4,11.8,10.4,19.7c6,7.4,8.5,15.6,9.4,19.3c1.2-4.7,3.4-16.9-2.8-24.6C500.3,622.3,492.5,617.4,489.7,615.8z"/>
						</g>
						<g>
							<path class="st2" d="M499.1,578.9l-0.8-0.8c-0.1-0.1-8.3-8.2-12.9-20.1c-4.6-12,2-30.8,2.2-31.5l0.7-2l0.3,2.1
								c0,0.2,2,15.9,6.5,27.7c4.6,11.9,4,23.4,4,23.5V578.9z M487.9,528.8c-1.6,5.3-5.2,19.4-1.6,28.8c3.7,9.5,9.6,16.5,11.8,18.9
								c0-3.2-0.3-12.4-3.9-21.9C490.7,545.3,488.7,533.6,487.9,528.8z"/>
						</g>
						<g>
							<path class="st2" d="M432.8,646.6l-2.8-2.2c9.3-5.7,18.4-11.8,27.3-18.2c15.2-10.9,29.6-22.9,43.1-35.9
								c6.7-6.5,13.1-13.3,19.3-20.4c6.1-7.1,11.8-14.5,17.1-22.2c5.2-7.8,10-15.8,14.2-24.2c4.1-8.4,7.5-17.1,10.3-26.1l0,0
								c0.1-0.3,0.4-0.4,0.6-0.3c0.3,0.1,0.4,0.4,0.3,0.6c-2.7,9-6.1,17.8-10.1,26.4c-4.2,8.5-8.8,16.6-14,24.5
								c-5.3,7.8-10.9,15.3-17,22.6c-6.1,7.2-12.5,14.1-19.2,20.7c-13.4,13.2-27.8,25.4-43,36.6C450.4,634.9,441.7,641,432.8,646.6z
								"/>
						</g>
						<g>
							<path class="st2" d="M474.5,614.2c2-1,4.1-1.6,6.3-1.9c2.2-0.2,4.5,0,6.5,1c1,0.5,1.9,1.3,2.6,2c0.8,0.7,1.6,1.5,2.3,2.2
								c1.5,1.5,3,3,4.5,4.6c2.9,3.1,5.7,6.4,8,10c1.1,1.8,2.1,3.7,2.9,5.8c0.7,2,1.3,4.2,1,6.3h-0.2c0.3-2.1-0.3-4.2-1.1-6.2
								s-1.8-3.9-2.9-5.7c-2.3-3.6-5.2-6.8-8.1-9.9c-1.5-1.5-3-3-4.5-4.5c-0.8-0.7-1.6-1.5-2.4-2.2c-0.8-0.7-1.6-1.4-2.5-1.8
								c-1.8-0.9-4-1.1-6-0.8c-2.1,0.3-4.1,1-5.9,1.9L474.5,614.2z"/>
						</g>
						<g>
							<path class="st2" d="M536.9,632.5l-0.2-1.6c0-0.1-1.6-10.9-6.8-22.4l0,0c-5.2-11.6-5.2-23.2-5.2-23.3v-1.1l0.8,0.7
								c0.1,0.1,8.7,7.7,13.9,19.4c5.3,11.8-1.5,26.2-1.8,26.8L536.9,632.5z M530.7,608.1c4,8.9,5.9,17.5,6.6,21
								c1.6-4,5.2-15.3,1.1-24.4c-4.2-9.3-10.5-16-12.8-18.2C525.8,589.6,526.6,598.8,530.7,608.1L530.7,608.1z"/>
						</g>
						<g>
							<path class="st2" d="M511.4,580.9c2.2-0.5,4.5-0.5,6.7-0.2s4.4,1.2,6.1,2.8c0.8,0.8,1.4,1.8,2,2.7s1.2,1.9,1.7,2.8
								c1.1,1.9,2.2,3.8,3.2,5.7c2.1,3.9,3.9,7.9,5.3,12.1c0.7,2.1,1.2,4.2,1.6,6.4c0.4,2.2,0.6,4.4,0.3,6.6h-0.2
								c0.2-2.2,0-4.4-0.4-6.5c-0.4-2.2-1-4.3-1.7-6.3c-1.4-4.2-3.3-8.1-5.4-11.9c-1.1-1.9-2.2-3.8-3.3-5.7
								c-0.6-0.9-1.2-1.9-1.8-2.8c-0.6-0.9-1.2-1.8-2-2.5c-1.5-1.4-3.6-2.2-5.7-2.5c-2.1-0.3-4.3-0.1-6.4,0.3L511.4,580.9z"/>
						</g>
						<g>
							<path class="st2" d="M490.5,601c2.3-4.5,4.5-9.1,6.4-13.7c0.5-1.2,0.9-2.3,1.2-3.5s0.5-2.4,0.4-3.6c-0.2-2.4-1.2-4.8-2.3-7.1
								c-2.2-4.5-4.8-9-6.5-13.8s-2.5-9.9-2.4-15h0.2c0.1,5.1,1,10.1,2.8,14.8s4.4,9.1,6.7,13.6c1.1,2.3,2.2,4.7,2.5,7.3
								c0.1,0.7,0.1,1.3,0,2c0,0.3-0.1,0.7-0.2,1c-0.1,0.3-0.1,0.6-0.2,1c-0.3,1.3-0.8,2.4-1.3,3.6c-1.9,4.7-4.1,9.3-6.5,13.8
								L490.5,601z"/>
						</g>
						<g>
							<path class="st2" d="M526,553l-0.5-1c-0.1-0.2-2.9-6.1-3.1-13.5l0,0c-0.2-7.2-2-13.2-2-13.2l-0.5-1.6l1.3,1
								c0.3,0.2,7.5,6.1,7.7,13.6c0.2,7.4-2.3,13.4-2.4,13.6L526,553z M523.4,538.5c0.1,5.3,1.7,9.9,2.5,11.9c0.7-2.1,2-6.7,1.9-12
								c-0.1-5.2-4-9.7-6.1-11.7C522.3,529,523.3,533.5,523.4,538.5L523.4,538.5z"/>
						</g>
						<g>
							<path class="st2" d="M522.7,567.6l3-15.9l0,0c0.2-3.6,0.5-7.1,0.6-10.7c0-0.9,0-1.8,0-2.7s-0.2-1.8-0.4-2.6
								c-0.5-1.7-1.2-3.4-2.1-4.9l0,0l0,0c1,1.5,1.7,3.1,2.3,4.9c0.2,0.9,0.4,1.8,0.5,2.7c0,0.9,0,1.8,0,2.7c0,3.6-0.2,7.2-0.4,10.7
								l0,0l0,0l-2.5,16c0,0.3-0.3,0.5-0.6,0.4C522.9,568.2,522.7,567.9,522.7,567.6L522.7,567.6z"/>
						</g>
					</g>
					<g>
						<g>
							<path class="st2" d="M213.2,358.5l-1.5-1.4c-0.1-0.1-8.2-7.7-20.4-10.5l0,0c-12.4-2.9-21.6-9.9-21.7-9.9l-0.9-0.7l1.1-0.2
								c0.1,0,11.4-2.2,23.9,0.6c5.2,1.2,10.1,5.1,14.2,11.2c3.1,4.6,4.6,8.8,4.6,8.9L213.2,358.5z M171.2,336.5
								c2.6,1.8,10.4,6.8,20.4,9.1l0,0c9.3,2.2,16.3,7,19.3,9.4c-2-4.4-7.8-15.4-17.4-17.6C183.5,335.1,174.3,336.1,171.2,336.5z"/>
						</g>
						<g>
							<path class="st2" d="M155.7,301.7l-1.1-0.1c-0.1,0-11.6-1.3-22.5-7.9l0,0c-11-6.6-17.4-25.4-17.7-26.2l-0.7-2l1.5,1.5
								c0.1,0.1,11.4,11.3,22.2,17.7c11,6.5,17.6,16,17.6,16.1L155.7,301.7z M132.6,292.8c8.7,5.2,17.8,7.1,21,7.6
								c-2-2.5-7.9-9.6-16.6-14.8c-8.5-5.1-17.3-13.1-20.8-16.4C118.1,274.3,124,287.7,132.6,292.8L132.6,292.8z"/>
						</g>
						<g>
							<path class="st2" d="M145.4,395.9h-3.5c3.8-10.2,7.2-20.6,10.2-31.1c5.2-18,9.2-36.3,11.8-54.8c1.2-9.3,2.1-18.6,2.6-27.9
								c0.4-9.3,0.3-18.7-0.3-28c-0.7-9.3-1.9-18.6-3.7-27.8c-2-9.1-4.6-18.1-7.9-26.9l0,0c-0.1-0.3,0-0.5,0.3-0.6s0.5,0,0.6,0.3
								c3.4,8.8,6.2,17.8,8.3,27c1.9,9.2,3.3,18.5,4.1,27.9c0.7,9.4,0.9,18.8,0.6,28.2c-0.4,9.4-1.1,18.8-2.3,28.1
								c-2.4,18.7-6.2,37.2-11.2,55.3C152.1,375.8,148.9,385.9,145.4,395.9z"/>
						</g>
						<g>
							<path class="st2" d="M158.2,344.6c1-2,2.2-3.8,3.8-5.4c1.6-1.5,3.5-2.8,5.7-3.2c1.1-0.2,2.2-0.2,3.3-0.1
								c1.1,0.1,2.1,0.2,3.2,0.3c2.1,0.2,4.3,0.5,6.4,0.9c4.2,0.7,8.5,1.5,12.5,3c2,0.7,4,1.6,5.8,2.7c1.8,1.2,3.6,2.5,4.7,4.4
								l-0.1,0.1c-1.1-1.8-2.9-3.1-4.7-4.2c-1.8-1.1-3.8-2-5.8-2.7c-4-1.4-8.3-2.2-12.5-2.7c-2.1-0.3-4.2-0.5-6.4-0.7
								c-1.1-0.1-2.1-0.2-3.2-0.2c-1.1-0.1-2.1-0.1-3.1,0.1c-2,0.4-3.8,1.6-5.3,3.1c-1.4,1.5-2.6,3.3-3.5,5.1L158.2,344.6z"/>
						</g>
						<g>
							<path class="st2" d="M218.6,320.5l-1.2-1.1c-0.1-0.1-8-7.6-19.2-13.4l0,0c-11.3-5.9-18.4-15-18.5-15.1L179,290l1.1,0.1
								c0.1,0,11.6,0.7,22.9,6.7c11.4,6,15,21.6,15.2,22.2L218.6,320.5z M181.2,291.2c2.1,2.4,8.4,9.2,17.4,13.9l0,0
								c8.7,4.6,15.4,10.1,18.1,12.4c-1.2-4.2-5.3-15.3-14.2-19.9C193.6,292.9,184.4,291.5,181.2,291.2z"/>
						</g>
						<g>
							<path class="st2" d="M166.7,295.7c1.5-1.7,3.2-3.2,5.2-4.3c2-1.1,4.2-1.8,6.5-1.5c1.1,0.1,2.2,0.5,3.3,0.9
								c1,0.4,2.1,0.8,3.1,1.1c2,0.8,4.1,1.6,6.1,2.5c4,1.8,8,3.8,11.6,6.3c1.8,1.2,3.6,2.6,5.2,4c1.6,1.5,3.2,3.1,4.3,5l-0.1,0.1
								c-1.2-1.8-2.7-3.4-4.3-4.9c-1.6-1.5-3.4-2.8-5.2-4c-3.6-2.4-7.6-4.4-11.6-6.1c-2-0.9-4.1-1.7-6.1-2.4c-1-0.4-2.1-0.7-3.1-1.1
								c-1-0.3-2.1-0.7-3.1-0.8c-2.1-0.2-4.2,0.5-6,1.6s-3.5,2.5-4.8,4.2L166.7,295.7z"/>
						</g>
						<g>
							<path class="st2" d="M162.6,324.4c-1-5-2-9.9-3.4-14.8c-0.4-1.2-0.7-2.4-1.2-3.6s-1-2.2-1.9-3.1c-1.7-1.8-3.9-3-6.2-4.1
								c-4.5-2.2-9.3-4.1-13.6-6.8c-4.3-2.7-8.1-6.3-11.2-10.3l0.2-0.1c3.2,3.9,7,7.4,11.3,10s9.1,4.4,13.7,6.6
								c2.3,1.1,4.6,2.3,6.5,4.2c0.5,0.5,0.9,1,1.2,1.6c0.2,0.3,0.3,0.6,0.5,0.9c0.1,0.3,0.3,0.6,0.4,0.9c0.5,1.2,0.9,2.4,1.3,3.7
								c1.4,4.9,2.5,9.9,3.4,14.9L162.6,324.4z"/>
						</g>
						<g>
							<g>
								<path class="st2" d="M195.4,266l-0.4-1.6c0-0.1-3-10.6-9.6-21.4l0,0c-6.7-10.9-8.1-22.3-8.1-22.4l-0.1-1.1l0.9,0.6
									c0.1,0.1,9.6,6.6,16.3,17.5c6.7,11,1.8,26.2,1.6,26.8L195.4,266z M178.4,221.7c0.6,3.2,2.5,12.2,7.8,20.9l0,0
									c5.1,8.3,8.1,16.6,9.2,20c1.1-4.2,3.3-15.8-2-24.4C188.1,229.4,181,223.6,178.4,221.7z"/>
							</g>
							<g>
								<path class="st2" d="M160.4,214.7c2.1-0.8,4.4-1.2,6.6-1.2c2.2,0,4.6,0.6,6.4,1.9c0.9,0.7,1.7,1.5,2.4,2.4
									c0.7,0.8,1.4,1.7,2.1,2.5c1.4,1.7,2.7,3.5,4,5.2c2.6,3.5,5,7.2,6.9,11.2c1,2,1.8,4,2.5,6.1s1.2,4.2,1.3,6.5
									c0,0,0,0.1-0.1,0.1c0,0-0.1,0-0.1-0.1l0,0c-0.1-2.2-0.7-4.3-1.3-6.4c-0.7-2.1-1.6-4.1-2.5-6c-1.9-3.9-4.4-7.6-7.1-11
									c-1.3-1.7-2.7-3.5-4.1-5.1c-0.7-0.8-1.4-1.7-2.1-2.5s-1.4-1.6-2.3-2.2c-1.7-1.2-3.9-1.7-6-1.7s-4.3,0.5-6.2,1.2l0,0
									c-0.3,0.1-0.5,0-0.6-0.3S160.1,214.8,160.4,214.7L160.4,214.7z"/>
							</g>
						</g>
						<g>
							<path class="st2" d="M160.9,264.7l-1-0.5c-0.2-0.1-6-3-10.8-8.7c-4.6-5.6-9.7-9.1-9.8-9.2l-1.4-0.9h1.6c0.4,0,9.7,0.2,14.5,6
								c4.7,5.7,6.4,11.9,6.5,12.2L160.9,264.7z M141.4,246.6c1.9,1.5,5.4,4.4,8.6,8.3l0,0c3.4,4.1,7.4,6.7,9.3,7.8
								c-0.7-2.1-2.5-6.6-5.9-10.7C150.1,248.1,144.2,246.9,141.4,246.6z"/>
						</g>
						<g>
							<path class="st2" d="M167.4,278.2l-7.4-14.3l0,0c-2-3-4-5.9-6.2-8.8c-0.5-0.7-1.1-1.4-1.6-2.1c-0.6-0.7-1.2-1.3-1.9-1.8
								c-1.4-1.1-3-1.9-4.7-2.5l0,0l0,0c1.7,0.6,3.3,1.4,4.8,2.4c0.7,0.5,1.4,1.1,2,1.8c0.6,0.7,1.1,1.4,1.7,2.1
								c2.2,2.8,4.3,5.8,6.3,8.7l0,0l0,0l7.9,14.1c0.1,0.2,0,0.5-0.2,0.7S167.5,278.5,167.4,278.2L167.4,278.2z"/>
						</g>
					</g>
				</g>
			</g>
		</g>
		<path class="st3" d="M291.7,422.4c1.8,6.8-0.3,28.2-0.3,28.2l0,0c1.8-7.6,4.3-15.1,8.3-18.2c17-13,24-1,45-19
			c36.4-31.2-13.3-55.6-5.3-59.6c10.3-5.1,24.8,3.1,33.3,0.6c8.3-2.4,7.7-16.8,11-22c9-14,17-7,21-25c1-4.3-2-8,5-17
			c3.8-4.9,20-26,38-23c1.3,0.2,2.6,0.8,3.7,1.6l0,0c0,0-0.2-12.1-27.7-22.6c-63.3-24.2-116.5-15.5-142,11
			c-34.8,36.2-28.5,95.5-7.5,129.5C279.5,395.5,289.1,412.7,291.7,422.4z"/>
		<path class="st3" d="M274.2,386.9c-4.5-7.2-8.3-15.6-11.1-24.6c-21.3,1.6-53,28.5-35.4,51.3c27.6,35.9,61.1,14.9,57.9-6.3
			C281.7,399.7,277.2,391.9,274.2,386.9z"/>
		<path class="st4" d="M443.6,626.9c-6.5-13.7-13.6-28.2-18-35.5c-10.3-17.2-38.3-46.9-47-65c-2.5-5.1-6-16.3-6-22s3.8-16.7,6-22
			c3.7-8.8,12.1-26.5,19-33c2.4-2.3,8.7-5.4,12-6c12.3-2.4,37.9,7.3,50,4c5.5-1.5,11.5-4.5,12-18c0.1-2.8-4-5.2-4-8c0-2.5,4-2,4-6
			c0-6-13.5-7.5-13-10s12.5-3.5,16-14c0.8-2.5-3.6-7.5-3-10c1.1-4.5,12.7-8.4,13-13c0.7-10-21.8-22.2-24-32c-1-4.7,4-9,4-19
			c0-13.2-4-47.8-17-50c-18-3-34.2,18.1-38,23c-7,9-4,12.7-5,17c-4,18-12,11-21,25c-3.3,5.2-2.9,18.9-11,22
			c-7.2,2.7-19-16.7-33.8,0.4c-20,23.1,46.9,24,5.8,58.6c-21.2,17.8-28,6-45,19c-7.4,5.7-9.6,26-12,35c-3,11.1-13.7,31.8-19,42
			c-7.6,14.7-17.7,23.3-30,59c-6.2,17.8-7.1,44.4-7.1,58.5H443.6z"/>
		<g>
			<path class="st5" d="M358.1,394.7c3.5,17.7,19.5,40.7,57.7,47.9c0,0-21.2-5.2-36.2-19.2S358.1,394.7,358.1,394.7z"/>
		</g>
		<path class="st5" d="M344,349.4c-3.2,1.6-6.7,5.5-7.4,8.8c0.8-1.7,8.1-9.9,17.5-9c1.6,0.2,5.1,0.9,7.2,2.2
			C358.2,348.6,351.3,345.7,344,349.4z"/>
		<path class="st5" d="M349.7,236.9c22.9-3.5,50.9-0.3,79.9,12.5c7.6,3.4,11.7,7.7,16,12c7,7-3.1,3.2-9,7c0.4,0.2,7-4,13,0l1.7,0.6
			c0,0-0.2-12.1-27.7-22.6c-63.3-24.2-116.5-15.5-142,11c-27.4,28.5-29.3,71.4-18.6,104.9c-5.4-20.6-6.3-49.6,2.2-70.5
			C274.3,269.8,282.8,247,349.7,236.9z"/>
		<path class="st5" d="M336.4,366.9c5.1,8.2,3.8,5.7,10.9,11c1.2,0.9,2.6,2.3,3.7,3.1c2.7,2,5.2,3,6.7,5.2c1.3,1.8,1.3,2,1.4,4.1
			C365.5,374.3,346.8,382,336.4,366.9z"/>
		<g>
			<path class="st5" d="M459.5,446.9c5.6-1.5,10.9-4.7,11.6-16.7c0,0-3,14.7-19.4,15.9c-5.8,0.4-21.7-3.6-27.6-4.2
				c-5.1-0.5-18.2-2.6-18.2-2.6l7.7,3.2c5.6-0.1,12.6,1.2,19.9,2.5C443.3,446.8,453.3,448.6,459.5,446.9z"/>
		</g>
		<g>
			<path class="st5" d="M409.4,290c4.1-5.2,9.1-10.8,14.7-15.2c0,0-12.7,7.9-15.1,10.6c-10,11.4-7,28.7-12.6,32.4
				c-5,3.3-16.4,5.3-17,16.3c-0.7,12.7-5.4,19.2-5.4,19.2c4-2.2,5.4-8.1,6.6-13.3c0.7-3.1,1.4-6,2.6-7.9c3.9-6.1,7.6-8.3,10.9-10.2
				c4.3-2.5,7.8-4.5,10-14.6c0.3-1.1,0.2-2.3,0.2-3.5c-0.1-3.2-0.2-7.1,4.9-13.7L409.4,290z"/>
		</g>
		<g>
			<path class="st5" d="M454,272.5c0,0,2.7,4.4,4.4,11.1c1.6,6.3,2.7,12.4,4.3,23.5c1.4,9.9-0.2,19.6-0.2,19.6
				c0.8-2.5,1.6-5.4,1.6-9.2C464.2,307.4,461.6,282.8,454,272.5z"/>
		</g>
		<path class="st5" d="M228.1,409.3c-2.1-3.6-8.2-19,6.2-33.2c-16,14.3-8.6,32.6-7.4,34.3c17.8,25.6,40,25.2,51.1,13.9
			C266.5,434.5,243.2,435.3,228.1,409.3z"/>
		<g>
			<path class="st5" d="M372.3,519.7c4.1,7.5,15.5,21.6,15.5,21.6c-3.8-5.4-7.1-10.5-9.2-14.9c-2.5-5.1-6-16.3-6-22s3.8-16.7,6-22
				c3.1-7.4,9.5-21.1,15.6-29.1C394.3,453.3,360.4,497.7,372.3,519.7z"/>
		</g>
		<path class="st6" d="M474.7,391.4c-3.5,10.5-15.5,11.5-16,14c0,0.2,0,0.3,0.1,0.5c1.1,2.1,11.3,3.7,12.7,8.4l0,0v0.1
			c0,0.1,0.1,0.3,0.1,0.4c0,0.2,0,0.3,0,0.5l0,0c7.1-7.6-2.5-10.5-2.5-11.5C469.2,402.9,481.6,398.1,474.7,391.4L474.7,391.4z"/>
		<line class="st7" x1="459.2" y1="405.9" x2="469.2" y2="403.9"/>
		<path class="st7" d="M357.2,391.9c0,0,16,48,73,53"/>
		<path d="M226.7,413.2c-12.1-16.8,1.2-44.1,30.3-49.9c1.5-0.3,3.4-0.9,6-1.4l0.4-0.1l0.1,0.4c2.9,9,6.6,17.3,11.1,24.5
			c1.5,2.4,6.7,10.9,11.3,20.4l0.1,0.3l-0.2,0.2C289.3,428.4,255.7,453.5,226.7,413.2z M284.9,407.2c-4.6-9.3-9.7-17.7-11.2-20l0,0
			c-4.5-7.2-8.2-15.4-11.1-24.3c-2.3,0.5-4,1.1-5.3,1.5c-44.3,12.8-32,43.8-30.5,46.1C251.6,446.1,284.9,431.3,284.9,407.2z"/>
		<path d="M405.6,563.5c-10.6-13.4-21.6-27.2-26.5-37.3c-2.4-5-6-16.2-6-21.8c0-5.5,3.7-16.3,6-21.8c3.8-9.2,12.1-26.4,18.9-32.8
			c2.3-2.2,8.4-5.2,11.8-5.9c5.8-1.1,14.9,0.5,23.7,2.1c9.8,1.8,19.9,3.6,26.4,1.9c6.1-1.7,11.9-5.1,12.4-18.5c0.1-1.6-1-3-2.1-4.4
			c-1-1.3-1.9-2.4-1.9-3.6c0-0.8,0.5-1.2,1.4-1.8c1.1-0.8,2.6-1.7,2.6-4.2c0-3.9-4.9-6-8.9-7.6c-1.8-0.7-4.2-1.7-4.1-2.3
			c0.1-0.6,1.7-1.3,3.4-2.1c4.1-1.9,10.2-4.7,12.6-11.9c0.5-1.5-0.5-3.4-1.5-5.5c-0.9-1.7-1.7-3.5-1.5-4.6c0.5-2,3.4-4,6.2-5.9
			c3.4-2.3,6.6-4.6,6.8-7.2c0.4-5.6-6.1-11.8-12.5-17.8c-5.2-4.9-10.6-10-11.5-14.3c-0.5-2,0.3-4.1,1.3-6.6c1.2-3,2.7-6.8,2.7-12.3
			c0-14.9-4.4-48.3-17.4-50.5c-8.3-1.4-21.6,1.5-38.4,23l-0.1,0.2c-5.2,6.6-5,10.6-4.9,13.7c0,1.2,0.1,2.3-0.2,3.5
			c-2.2,10.1-5.7,12.1-10,14.6c-3.3,1.9-7,4.1-10.9,10.2c-1.2,1.8-1.9,4.8-2.6,7.9c-1.4,5.8-2.9,12.5-8.1,13.9
			c-8.7,2.3-19-17.2-33.4-0.6c-10.6,12.2,0.1,19.3,8.4,25.4c6.3,4.6,9.5,10.5,9.7,15.9c0.2,4.9-3.9,10.8-12.8,18.4
			c-11.3,9.7-18.5,10.6-25.4,11.5c-6,0.8-11.7,1.5-19.6,7.5c-5.8,4.4-8.3,17.1-10.4,27.2c-0.6,3-1.2,5.9-1.8,8.1
			c-3,11.2-13.8,31.9-19,41.9c-2.2,4.3-4.7,8.2-7.4,12.2c-6.2,9.6-14,21.6-22.7,46.8c-6.1,17.8-7.1,44.2-7.2,58.7h1
			c0-14.4,1-40.7,7.1-58.3c8.7-25.1,16.1-36.6,22.6-46.6c2.6-4.1,5.1-7.9,7.4-12.3c5.2-10,16-30.8,19-42.1c0.6-2.2,1.2-5.1,1.8-8.1
			c1.9-9.5,4.6-22.4,10-26.6c7.7-5.9,13.2-6.6,19.1-7.3c7.1-0.9,14.4-1.8,25.9-11.7c9.2-7.9,13.4-14,13.2-19.2
			c-0.2-5.9-3.6-11.9-10.1-16.7c-8.5-6.3-17.5-11.8-9.4-22.7c12.3-16.7,26.9,1.8,34.2-0.3c5.7-1.7,7.4-8.6,8.8-14.6
			c0.7-3,1.4-5.9,2.5-7.6c3.8-5.9,7.4-8,10.6-9.9c4.4-2.6,8.1-4.8,10.5-15.3c0.3-1.3,0.2-2.5,0.2-3.7c-0.1-3.2-0.2-6.7,4.7-13.1
			l0.1-0.2c16.4-21.1,29.4-24,37.4-22.7c12.7,2.1,16.6,37,16.6,49.5c0,5.3-1.4,9-2.6,11.9c-1.1,2.7-1.9,4.8-1.4,7.2
			c1,4.6,6.3,9.6,11.8,14.8c6.2,5.8,12.5,11.9,12.2,17c-0.2,2.1-3.3,4.3-6.4,6.4c-3.1,2.1-6,4.2-6.6,6.5c-0.4,1.4,0.6,3.3,1.6,5.3
			c0.9,1.8,1.8,3.6,1.5,4.7c-2.3,6.8-8.2,9.5-12.1,11.3c-2.2,1-3.7,1.7-3.9,2.8c-0.3,1.4,1.8,2.3,4.7,3.4c3.7,1.5,8.3,3.4,8.3,6.7
			c0,2-1,2.7-2.1,3.4c-0.9,0.6-1.9,1.2-1.9,2.6c0,1.6,1.1,2.9,2.1,4.3c1,1.3,1.9,2.5,1.9,3.7c-0.5,12.8-5.9,16-11.6,17.5
			c-6.2,1.7-16.2-0.1-25.9-1.9c-9.3-1.7-18.1-3.3-24-2.1c-3.5,0.7-9.8,3.8-12.2,6.1c-6.9,6.5-15.3,23.9-19.1,33.2
			c-2.4,5.8-6,16.6-6,22.2c0,5.8,3.6,17.1,6,22.2c4.9,10.3,15.9,24.1,26.6,37.5c8.2,10.3,16,20.1,20.4,27.5
			c3.7,6.1,9.7,18,17.8,35.2h1.1c-8.3-17.5-14.4-29.5-18.1-35.8C421.6,583.7,413.8,573.9,405.6,563.5z"/>
		<path d="M336.2,626.9h1.1c2.2-6,11.9-34.3,10.1-60c0-0.3-0.3-0.5-0.5-0.5c-0.3,0-0.5,0.3-0.5,0.5
			C348.2,593,338.1,621.8,336.2,626.9z"/>
		<g>
			<path d="M262.3,362.5c0-0.1-3-10.7-4.7-24.6c-1.5-12.8-2.2-31.2,3.4-45.7c4.1-10.6,12.5-32.6,35.1-46.7
				c17.1-10.7,50.4-16.2,75.8-12.6c76.6,10.9,80,35.3,80.2,36.3l-1,0.1c0-0.2-3.6-24.7-79.3-35.4c-25.2-3.6-58.1,1.9-75.1,12.5
				c-22.3,13.9-30.7,35.7-34.7,46.2c-5.5,14.3-4.8,32.5-3.3,45.2c1.7,13.8,4.6,24.4,4.7,24.5L262.3,362.5z"/>
		</g>
		<path class="st6" d="M283.2,386.9c-3.6-12.1-13.6-17.4-19.9-23.8c-0.2-0.2-0.5-0.5-0.7-0.7c-1.1,0.2-2.2,0.5-3.3,0.8
			c0.3,5.5-0.2,12.8,1.8,17.8c5.1,12.6,15.9,30.4,21.4,38.8c2-1.7,2.9-6.5,3.1-11C285.6,408.2,286.1,396.9,283.2,386.9z"/>
		<g>
			<g>
				<path class="st8" d="M361.5,396.6c-3.2-3.2-8.4-3.2-11.6,0c-1.6,1.6-2.4,3.7-2.4,5.8l0,0v30.5h4.7v-27.8c0-1.9,1.6-3.5,3.5-3.5
					c1.9,0,3.5,1.6,3.5,3.5v27.8h4.7v-30.5C363.8,400.3,363,398.2,361.5,396.6z"/>
				<g>
					<path d="M361.3,396.7c-1.1-1.1-2.6-1.9-4.1-2.1c-0.8-0.1-1.6-0.1-2.3-0.1c-0.8,0.1-1.5,0.3-2.2,0.6c-1.4,0.6-2.6,1.7-3.4,2.9
						c-0.8,1.3-1.3,2.8-1.4,4.3l0,0l-0.3,0.3l0.3-0.3c-0.1,2.5-0.2,5.1-0.2,7.6c-0.1,2.5-0.1,5.1-0.1,7.6s0,5.1,0,7.6
						c0.1,2.5,0.1,5.1,0.3,7.6l0,0l-0.3-0.3h4.6l0,0l-0.3,0.3c0.1-2.8,0.2-5.6,0.2-8.3c0-2.8,0.1-5.6-0.1-8.3
						c-0.1-2.8-0.1-5.6-0.1-8.3v-2.1c0-0.7,0-1.5,0.3-2.2c0.6-1.4,2-2.4,3.5-2.3c1.5,0,2.9,0.9,3.5,2.3c0.1,0.3,0.2,0.7,0.3,1.1
						c0,0.4,0,0.7,0,1.1v2.1v8.3c0,5.6,0.5,11.1,0.1,16.7l0,0l-0.3-0.3l4.6,0.1l0,0l-0.2,0.2c-0.1-3.1,0-6.1,0-9.2l0.1-9.2
						c0-3.1-0.1-6.1-0.2-9.2v-2.3c0-0.8,0-1.5-0.2-2.2C363.1,399.2,362.4,397.8,361.3,396.7z M361.6,396.5c1.1,1.1,1.9,2.5,2.3,4
						c0.2,0.8,0.2,1.6,0.2,2.3v2.3c0,3.1-0.2,6.1-0.2,9.2l0.1,9.2c0,3.1,0,6.1,0,9.2v0.2h-0.2l0,0l-4.6,0.1h-0.3v-0.4l0,0
						c-0.4-5.6,0.1-11.1,0.1-16.7v-8.3v-2.1c0-0.7,0-1.4-0.2-2c-0.5-1.2-1.7-2.1-3-2c-1.3,0-2.5,0.9-3,2.1c-0.3,0.6-0.2,1.2-0.2,1.9
						v2.1c0,2.8,0,5.6-0.1,8.3c-0.1,2.8-0.1,5.6-0.1,8.3c0,2.8,0.1,5.6,0.2,8.3v0.3h-0.4l0,0h-4.6h-0.5v-0.4l0,0
						c0.2-2.5,0.2-5.1,0.3-7.6c0-2.5,0.1-5.1,0-7.6c0-2.5,0-5.1-0.1-7.6c0-2.5-0.1-5.1-0.2-7.6l0.3-0.3l-0.3,0.3l0,0
						c-0.1-1.7,0.4-3.4,1.4-4.8c0.9-1.4,2.3-2.5,3.9-3.1c0.8-0.3,1.6-0.5,2.4-0.6s1.7,0,2.5,0.2s1.6,0.5,2.3,0.9
						C360.3,395.4,361,395.9,361.6,396.5z"/>
				</g>
			</g>
			<g>
				<circle class="st0" cx="355.7" cy="384.8" r="8.2"/>
				<path d="M364.3,384.8c0.1,2.3-0.9,4.6-2.7,6c-0.9,0.7-1.8,1.2-2.8,1.7c-0.3,0.1-0.5,0.2-0.7,0.4c-0.3,0.1-0.5,0.2-0.8,0.3
					c-0.3,0.1-0.5,0.2-0.8,0.2s-0.6,0-0.8,0.1c-2.3,0.1-4.5-1-6-2.6c-1.4-1.7-2.3-3.8-2.4-6c0-2.2,0.8-4.4,2.4-6
					c1.6-1.6,3.8-2.4,6-2.4C360.1,376.3,364.2,380.2,364.3,384.8z M363.4,384.8c0.1-2-0.6-4.1-2.1-5.6s-3.5-2.4-5.6-2.4
					c-2.1,0-4.1,0.9-5.6,2.4c-1.4,1.5-2.3,3.5-2.4,5.6c0,1,0.2,2.1,0.6,3.1c0.3,1,1.1,1.8,1.8,2.5c1.5,1.4,3.5,2.1,5.5,2.2
					c0.3,0,0.5,0,0.8,0s0.5,0,0.8,0c0.5,0,1-0.1,1.5-0.2c1-0.4,1.8-1.1,2.5-1.9C362.5,388.7,363.3,386.8,363.4,384.8z"/>
			</g>
			<path class="st0" d="M356.4,395.7L356.4,395.7c-0.4,0-0.8-0.3-0.8-0.8v-2.3c0-0.4,0.3-0.8,0.8-0.8l0,0c0.4,0,0.8,0.3,0.8,0.8v2.3
				C357.2,395.4,356.8,395.7,356.4,395.7z"/>
		</g>
		<path class="st8" d="M393.9,170.8c-38.5,0-69.7-31.2-69.7-69.7c0-17,6.1-32.6,16.2-44.7c-27,9.6-46.3,35.4-46.3,65.6
			c0,38.5,31.2,69.7,69.7,69.7c21.5,0,40.6-9.7,53.4-25C409.9,169.4,402.1,170.8,393.9,170.8z"/>
		<g>
			<path class="st5" d="M269.1,509.7c-2.3,4.4-4.8,8.2-7.4,12.3c-6.5,10.1-13.9,21.5-22.6,46.6c-6.1,17.7-7.1,44.3-7.1,58.3h0.8
				c0.8-10.3,2.1-26.3,3.2-31.4c2.3-10.8,6.1-22.7,9.5-33.2c4-12.6,18.6-32.1,24-44.1c4-8.8,12.4-32.5,16.2-43.6
				C281.3,486.1,273.4,501.5,269.1,509.7z"/>
			<path class="st5" d="M285.8,474.5c0.8-2.1,1.5-4.1,2.1-5.9C287.9,468.6,287.1,470.9,285.8,474.5z"/>
		</g>
	</g>
</g>
</svg>
