<svg xmlns="http://www.w3.org/2000/svg" width="14.761" height="47.026" viewBox="0 0 14.761 47.026">
  <g id="Group_219" data-name="Group 219" transform="translate(150.934 -358.055)">
    <g id="Group_217" data-name="Group 217" transform="translate(-150.934 372.383)">
      <g id="Group_216" data-name="Group 216" transform="translate(0 0)">
        <path id="Path_241" data-name="Path 241" d="M-139.079,407.9a6.234,6.234,0,0,0-3.326-1.653,6.3,6.3,0,0,0-3.591.528,6.5,6.5,0,0,0-2.678,2.319,7.227,7.227,0,0,0-1.137,3.355c-.178,2.079-.282,4.165-.351,6.247-.106,2.083-.088,4.166-.127,6.249s0,4.166.054,6.249c.1,2.083.187,4.166.422,6.249v.021l-.543-.543h3.819l-.543.543c.167-2.278.255-4.556.292-6.834a67.388,67.388,0,0,0-.1-6.833c-.189-2.278-.164-4.556-.14-6.834l.032-1.708a4.5,4.5,0,0,1,.272-1.843,3.292,3.292,0,0,1,3.061-2.018,3.29,3.29,0,0,1,3.026,2.008,4.273,4.273,0,0,1,.253,1.821l0,1.708c.009,2.278-.014,4.556.029,6.834-.011,2.278.145,4.556.289,6.834a40.933,40.933,0,0,1-.149,6.834l0,.031-.543-.543,3.787.205.032,0-.336.336c-.079-2.522-.032-5.044-.051-7.566.01-2.522.2-5.044.188-7.566.005-2.522-.175-5.044-.238-7.566-.074-1.265.069-2.542-.115-3.684A5.718,5.718,0,0,0-139.079,407.9Zm.35-.35a7.87,7.87,0,0,1,2.013,3.358,14.041,14.041,0,0,1,.215,3.858c-.064,2.522-.244,5.044-.238,7.566-.012,2.522.178,5.044.188,7.566-.019,2.522.028,5.044-.05,7.566l-.01.32-.327.017-.032,0-3.787.205-.469.025-.075-.569,0-.031a40.931,40.931,0,0,1-.149-6.834c.145-2.278.3-4.556.289-6.834.043-2.278.02-4.556.029-6.834l0-1.708a3.556,3.556,0,0,0-.188-1.538,2.5,2.5,0,0,0-2.341-1.555,2.49,2.49,0,0,0-2.265,1.6,3.654,3.654,0,0,0-.146,1.521l.031,1.708c.024,2.278.049,4.556-.14,6.834a67.3,67.3,0,0,0-.1,6.833c.037,2.278.125,4.556.292,6.834l.039.527-.582.016h-4.4l.036-.544v-.021c.235-2.083.325-4.166.422-6.249.058-2.083.1-4.166.054-6.249s-.021-4.166-.127-6.249c-.069-2.084-.174-4.165-.35-6.251a6.476,6.476,0,0,1,1.139-4.081,7.07,7.07,0,0,1,3.344-2.6,7.3,7.3,0,0,1,4.151-.225A7.4,7.4,0,0,1-138.729,407.55Z" transform="translate(150.934 -405.335)" fill="#557571"/>
      </g>
    </g>
    <g id="Group_218" data-name="Group 218" transform="translate(-150.705 358.055)">
      <path id="Path_242" data-name="Path 242" d="M-135.66,365.068a5.541,5.541,0,0,1-2.373,5.087,23.1,23.1,0,0,1-2.437,1.311c-.4.217-.788.514-1.233.729a3.454,3.454,0,0,1-1.417.275,6.676,6.676,0,0,1-5.12-2.282,9.73,9.73,0,0,1-1.929-5.12,6.6,6.6,0,0,1,2.006-5.043,7.293,7.293,0,0,1,5.043-1.969,7.054,7.054,0,0,1,4.991,2.022A7.779,7.779,0,0,1-135.66,365.068Zm-1.5,0a5.719,5.719,0,0,0-1.461-4.5,6.4,6.4,0,0,0-4.5-1.908,6.168,6.168,0,0,0-4.443,1.96,6.954,6.954,0,0,0-1.923,4.443,5.785,5.785,0,0,0,.428,2.46c.225.847,1.024,1.345,1.572,1.906a6.96,6.96,0,0,0,4.366,1.647,8.576,8.576,0,0,1,1.2.015,3.841,3.841,0,0,0,1.284-.033,3.659,3.659,0,0,0,1.916-1.6A10.631,10.631,0,0,0-137.164,365.068Z" transform="translate(150.177 -358.055)" fill="#557571"/>
    </g>
  </g>
</svg>
