<?xml version="1.0" encoding="utf-8"?>
<!-- Generator: Adobe Illustrator 24.0.3, SVG Export Plug-In . SVG Version: 6.00 Build 0)  -->
<svg version="1.1" id="Layer_1" xmlns="http://www.w3.org/2000/svg" xmlns:xlink="http://www.w3.org/1999/xlink" x="0px" y="0px"
	 viewBox="0 0 25.8 48.3" style="enable-background:new 0 0 25.8 48.3;" xml:space="preserve">
<style type="text/css">
	.st0{fill:#557571;}
	.st1{fill:none;stroke:#557571;stroke-miterlimit:10;}
</style>
<g id="Group_218" transform="translate(-150.705 358.055)">
	<path id="Path_242" class="st0" d="M170.8-351c0.2,2-0.7,3.9-2.4,5.1c-0.8,0.5-1.6,0.9-2.4,1.3c-0.4,0.2-0.8,0.5-1.2,0.7
		c-0.4,0.2-0.9,0.3-1.4,0.3c-2,0-3.8-0.8-5.1-2.3c-1.1-1.5-1.8-3.3-1.9-5.1c-0.1-1.9,0.6-3.7,2-5c1.4-1.3,3.2-2,5-2
		c1.9,0,3.7,0.7,5,2C169.8-354.7,170.7-353,170.8-351z M169.3-351c0.2-1.6-0.3-3.3-1.5-4.5c-1.2-1.2-2.8-1.9-4.5-1.9
		c-1.7,0-3.3,0.7-4.4,2c-1.2,1.2-1.8,2.8-1.9,4.4c0,0.8,0.1,1.7,0.4,2.5c0.2,0.8,1,1.3,1.6,1.9c1.2,1,2.8,1.6,4.4,1.6
		c0.4,0,0.8,0,1.2,0c0.4,0.1,0.9,0,1.3,0c0.8-0.3,1.5-0.9,1.9-1.6C168.6-348,169.2-349.5,169.3-351L169.3-351z"/>
</g>
<g id="Group_224" transform="translate(-156.328 372.055)">
	<path id="Path_242-2" class="st0" d="M220.7-345.6c0.2,3.4-1.2,7.2-4.2,9c-1.4,0.9-2.8,1.6-4.3,2.3c-0.7,0.4-1.4,0.9-2.2,1.3
		c-0.8,0.3-1.7,0.5-2.5,0.5c-3.5,0-6.8-1.4-9.1-4c-2-2.6-3.2-5.8-3.4-9.1c-0.2-3.4,1.1-6.6,3.6-8.9c2.4-2.3,5.6-3.5,8.9-3.5
		c3.3,0,6.5,1.3,8.9,3.6C218.8-352.2,220.4-349,220.7-345.6z M218-345.6c0.3-2.9-0.6-5.8-2.6-8c-2.1-2.1-5-3.4-8-3.4
		c-3,0-5.8,1.3-7.9,3.5c-2,2.1-3.3,4.9-3.4,7.9c-0.1,1.5,0.2,3,0.8,4.4c0.4,1.5,1.8,2.4,2.8,3.4c2.2,1.8,4.9,2.9,7.7,2.9
		c0.7,0,1.4,0,2.1,0c0.8,0.1,1.5,0.1,2.3-0.1c1.4-0.5,2.6-1.5,3.4-2.8C216.7-340.2,217.7-342.8,218-345.6L218-345.6z"/>
</g>
<path class="st1" d="M77.8,28.7c0,3.9-2,3.8-2,4c-0.2,4.9-1,7.2-5.7,7.7c-0.3,0-1.7,2-2,2c-0.4,0-1.6-2-2-2c-5.7,0-4.9-4.6-3.7-5.7
	c0.2-0.1-4-0.2-4-6c0-4.5,5.2-5.9,5-6c-1.6-1.1-2.9-5.7,2.7-5.7c0.5,0,1.4-2,2-2c0.3,0,1.7,2,2,2c3.7,0,5.7,3.4,3.7,5.7
	C73.7,22.8,77.8,25.1,77.8,28.7z"/>
<path class="st0" d="M-7.8,28.7c0-3.7-3.2-5.4-4.6-6.1c0.8-0.9,1.3-2.4,0.9-3.7c-0.3-0.9-1.2-2.4-4.4-2.4c-0.1-0.1-0.4-0.5-0.6-0.8
	c-0.5-0.7-0.9-1.2-1.4-1.2s-0.9,0.6-1.4,1.2c-0.2,0.3-0.5,0.7-0.6,0.8c-3.2,0-4.1,1.5-4.4,2.4c-0.4,1.3,0.1,2.8,0.9,3.7
	c-1.4,0.7-4.6,2.4-4.6,6.1c0,2.3,0.7,5.2,3.7,6.2c-0.5,0.9-0.8,2.2-0.3,3.4c0.3,0.9,1.4,2.5,4.7,2.5c0.2,0.1,0.5,0.5,0.7,0.8
	c0.6,0.8,1,1.2,1.4,1.2s0.8-0.4,1.4-1.2c0.2-0.3,0.5-0.7,0.7-0.8c3.3,0,4.4-1.6,4.7-2.5c0.4-1.2,0.2-2.5-0.3-3.4
	C-8.4,33.8-7.8,30.9-7.8,28.7z M-12.2,34.1c-0.2,0.1-0.5,0.1-0.6,0.4l-0.1,0.3l0.2,0.2c0.5,0.4,1,1.8,0.5,2.9
	c-0.4,1.2-1.8,1.9-3.9,1.9c-0.4,0-0.7,0.4-1.4,1.2c-0.2,0.2-0.4,0.5-0.6,0.7c0,0,0,0,0,0c0,0,0,0,0,0c-0.2-0.2-0.4-0.5-0.6-0.7
	c-0.6-0.8-1-1.2-1.4-1.2c-2.1,0-3.4-0.6-3.9-1.9c-0.4-1.1,0-2.5,0.5-2.9l0.2-0.2l-0.1-0.3c-0.1-0.3-0.3-0.4-0.6-0.4
	c-2.3-0.6-3.4-2.4-3.4-5.4c0-3.4,3.3-4.9,4.4-5.4c0.4-0.2,0.6-0.3,0.6-0.6l0-0.3l-0.2-0.2c-0.7-0.4-1.4-1.9-1.1-3.1
	c0.4-1.4,2.1-1.6,3.4-1.6c0.5,0,0.9-0.5,1.4-1.2c0.2-0.2,0.4-0.6,0.6-0.7c0,0,0,0,0.1,0.1c0,0,0,0,0.1-0.1c0.1,0.2,0.4,0.5,0.6,0.7
	c0.5,0.7,0.9,1.2,1.4,1.2c1.3,0,3,0.3,3.4,1.6c0.4,1.2-0.4,2.6-1.1,3.1l-0.2,0.2l0,0.3c0,0.3,0.2,0.4,0.6,0.6c1.1,0.5,4.4,2,4.4,5.4
	C-8.8,31.7-9.9,33.5-12.2,34.1z"/>
<path class="st0" d="M22.9,26.4c0.5-2.6-0.6-5.3-2.8-6.7l-4.6-3c-0.7-0.5-1.4-1-2.1-1.7l-0.5-0.5L12.4,15c-0.6,0.6-1.3,1.2-2.1,1.7
	l-4.6,3c-2.2,1.5-3.4,4.2-2.8,6.7c-1.8,3.1-1.8,6.9,0,10c-0.5,2.6,0.6,5.3,2.8,6.7l4.6,3c0.7,0.5,1.3,1,1.9,1.6l0.6,0.6l0.5-0.5
	c0.6-0.6,1.3-1.2,2.1-1.7l4.7-3c2.2-1.4,3.4-4.1,2.9-6.7C24.7,33.3,24.7,29.5,22.9,26.4z M21.4,36.5c0.5,2.1-0.3,4.3-2.2,5.4l-4.7,3
	c-0.6,0.4-1.2,0.9-1.8,1.4c-0.5-0.5-1.1-0.9-1.7-1.3l-4.6-3c-1.8-1.2-2.6-3.3-2.1-5.4l0.1-0.3l-0.2-0.3c-1.7-2.8-1.7-6.2,0-9
	l0.2-0.3l-0.1-0.3c-0.5-2.1,0.3-4.3,2.1-5.4l4.6-3c0.6-0.4,1.2-0.9,1.8-1.4c0.6,0.5,1.2,1,1.8,1.4l4.6,3c1.8,1.2,2.7,3.4,2.1,5.4
	l-0.1,0.3l0.2,0.3c1.7,2.8,1.7,6.2,0,9l-0.2,0.3L21.4,36.5z"/>
</svg>
