<svg xmlns="http://www.w3.org/2000/svg" width="25.778" height="39.579" viewBox="0 0 25.778 39.579">
  <g id="Group_219" data-name="Group 219" transform="translate(156.328 -358.055)">
    <g id="Group_218" data-name="Group 218" transform="translate(-150.705 358.055)">
      <path id="Path_242" data-name="Path 242" d="M-135.66,365.068a5.541,5.541,0,0,1-2.373,5.087,23.1,23.1,0,0,1-2.437,1.311c-.4.217-.788.514-1.233.729a3.454,3.454,0,0,1-1.417.275,6.676,6.676,0,0,1-5.12-2.282,9.73,9.73,0,0,1-1.929-5.12,6.6,6.6,0,0,1,2.006-5.043,7.293,7.293,0,0,1,5.043-1.969,7.054,7.054,0,0,1,4.991,2.022A7.779,7.779,0,0,1-135.66,365.068Zm-1.5,0a5.719,5.719,0,0,0-1.461-4.5,6.4,6.4,0,0,0-4.5-1.908,6.168,6.168,0,0,0-4.443,1.96,6.954,6.954,0,0,0-1.923,4.443,5.785,5.785,0,0,0,.428,2.46c.225.847,1.024,1.345,1.572,1.906a6.96,6.96,0,0,0,4.366,1.647,8.576,8.576,0,0,1,1.2.015,3.841,3.841,0,0,0,1.284-.033,3.659,3.659,0,0,0,1.916-1.6A10.631,10.631,0,0,0-137.164,365.068Z" transform="translate(150.177 -358.055)" fill="#557571"/>
    </g>
    <g id="Group_224" data-name="Group 224" transform="translate(-156.328 372.055)">
      <path id="Path_242-2" data-name="Path 242" d="M-124.424,370.5c.24,3.43-1.218,7.208-4.209,9.023a40.978,40.978,0,0,1-4.323,2.325c-.707.385-1.4.912-2.187,1.294a6.128,6.128,0,0,1-2.514.488,11.842,11.842,0,0,1-9.082-4.048,17.262,17.262,0,0,1-3.423-9.082,11.7,11.7,0,0,1,3.559-8.946,12.937,12.937,0,0,1,8.946-3.493,12.513,12.513,0,0,1,8.854,3.586A13.8,13.8,0,0,1-124.424,370.5Zm-2.667,0a10.146,10.146,0,0,0-2.591-7.975,11.347,11.347,0,0,0-7.975-3.384,10.942,10.942,0,0,0-7.882,3.477,12.336,12.336,0,0,0-3.411,7.882,10.262,10.262,0,0,0,.759,4.364c.4,1.5,1.816,2.386,2.789,3.382a12.346,12.346,0,0,0,7.746,2.922,15.208,15.208,0,0,1,2.129.027,6.814,6.814,0,0,0,2.277-.058,6.49,6.49,0,0,0,3.4-2.833A18.859,18.859,0,0,0-127.092,370.5Z" transform="translate(150.177 -358.055)" fill="#557571"/>
    </g>
  </g>
</svg>
