<svg xmlns="http://www.w3.org/2000/svg" width="45.151" height="45.15" viewBox="0 0 45.151 45.15"><g transform="translate(-900.16 -3193)"><path d="M-365.083,74.324a11.593,11.593,0,0,0-11.593,11.593A11.593,11.593,0,0,0-365.083,97.51,11.593,11.593,0,0,0-353.49,85.917,11.593,11.593,0,0,0-365.083,74.324Zm0,19.118a7.525,7.525,0,0,1-7.525-7.525,7.525,7.525,0,0,1,7.525-7.525,7.525,7.525,0,0,1,7.525,7.525A7.525,7.525,0,0,1-365.083,93.442Z" transform="translate(1287.819 3129.658)" fill="#d6ddd8"/><circle cx="2.709" cy="2.709" r="2.709" transform="translate(932.077 3200.815)" fill="#d6ddd8"/><path d="M-378.425,54.068c6.028,0,6.742.023,9.122.131a12.5,12.5,0,0,1,4.192.777,7,7,0,0,1,2.6,1.689,7,7,0,0,1,1.689,2.6,12.5,12.5,0,0,1,.778,4.192c.108,2.38.131,3.094.131,9.122s-.023,6.742-.131,9.122a12.5,12.5,0,0,1-.778,4.192,7,7,0,0,1-1.689,2.6,7,7,0,0,1-2.6,1.689,12.5,12.5,0,0,1-4.192.777c-2.38.108-3.094.131-9.122.131s-6.742-.023-9.122-.131a12.5,12.5,0,0,1-4.192-.777,7,7,0,0,1-2.6-1.689,7,7,0,0,1-1.689-2.6A12.494,12.494,0,0,1-396.8,81.7c-.108-2.38-.131-3.094-.131-9.122s.023-6.742.131-9.122a12.493,12.493,0,0,1,.778-4.192,7,7,0,0,1,1.689-2.6,7,7,0,0,1,2.6-1.689,12.5,12.5,0,0,1,4.192-.777c2.38-.108,3.094-.131,9.122-.131m0-4.068c-6.131,0-6.9.026-9.308.136a16.574,16.574,0,0,0-5.48,1.049,11.066,11.066,0,0,0-4,2.6,11.064,11.064,0,0,0-2.6,4,16.571,16.571,0,0,0-1.049,5.48c-.11,2.408-.136,3.177-.136,9.308s.026,6.9.136,9.308a16.571,16.571,0,0,0,1.049,5.48,11.064,11.064,0,0,0,2.6,4,11.065,11.065,0,0,0,4,2.6,16.573,16.573,0,0,0,5.48,1.049c2.408.11,3.177.136,9.308.136s6.9-.026,9.308-.136a16.572,16.572,0,0,0,5.48-1.049,11.065,11.065,0,0,0,4-2.6,11.068,11.068,0,0,0,2.6-4,16.575,16.575,0,0,0,1.049-5.48c.11-2.408.136-3.177.136-9.308s-.026-6.9-.136-9.308a16.575,16.575,0,0,0-1.049-5.48,11.068,11.068,0,0,0-2.6-4,11.066,11.066,0,0,0-4-2.6,16.573,16.573,0,0,0-5.48-1.049c-2.408-.11-3.177-.136-9.308-.136Z" transform="translate(1301.16 3143)" fill="#d6ddd8"/></g></svg>