<?xml version="1.0" encoding="utf-8"?>
<!-- Generator: Adobe Illustrator 24.0.3, SVG Export Plug-In . SVG Version: 6.00 Build 0)  -->
<svg version="1.1" id="Layer_1" xmlns="http://www.w3.org/2000/svg" xmlns:xlink="http://www.w3.org/1999/xlink" x="0px" y="0px"
	 viewBox="0 0 25.8 22.9" style="enable-background:new 0 0 25.8 22.9;" xml:space="preserve">
<style type="text/css">
	.st0{fill:#557571;}
</style>
<g id="Group_218" transform="translate(-150.705 358.055)">
	<path id="Path_242" class="st0" d="M168.7-353.1c0.1,1.4-0.5,2.8-1.7,3.6c-0.6,0.3-1.1,0.7-1.7,0.9c-0.3,0.2-0.6,0.4-0.9,0.5
		c-0.3,0.1-0.7,0.2-1,0.2c-1.4,0-2.7-0.6-3.6-1.6c-0.8-1-1.3-2.3-1.4-3.6c-0.1-1.3,0.5-2.6,1.4-3.6c1-0.9,2.2-1.4,3.6-1.4
		c1.3,0,2.6,0.5,3.5,1.4C168-355.7,168.6-354.5,168.7-353.1z M167.6-353.1c0.1-1.2-0.2-2.3-1-3.2c-0.8-0.8-2-1.3-3.2-1.3
		c-1.2,0-2.3,0.5-3.1,1.4c-0.8,0.8-1.3,2-1.4,3.1c0,0.6,0.1,1.2,0.3,1.7c0.2,0.6,0.7,0.9,1.1,1.3c0.9,0.7,1.9,1.1,3.1,1.2
		c0.3,0,0.6,0,0.8,0c0.3,0,0.6,0,0.9,0c0.6-0.2,1-0.6,1.3-1.1C167.1-351,167.5-352,167.6-353.1L167.6-353.1z"/>
</g>
<path class="st0" d="M25.8,22.5c0-0.1,0-0.2,0-0.3c0,0,0-0.5-0.1-0.5c-0.4-3.2-1.9-6.1-4.3-8.3C19,11,15.8,9.7,12.5,9.7
	C9.2,9.7,6,11,3.6,13.2C1.3,15.5,0,18.5,0,21.7c0,0,0,0,0,0v1c2.1,0.2,4.3,0.2,6.4,0.2l3.2-0.1l3.2-0.1c1.1,0,2.1-0.1,3.2-0.1
	c1.1,0,2.1-0.1,3.2,0c2.1,0.2,4.3,0.4,6.4,0L25.8,22.5L25.8,22.5z M19.3,21.7c-1.1,0.1-2.1,0-3.2,0c-1.1,0-2.1-0.1-3.2-0.1l-3.2-0.1
	l-3.2-0.1c-1.7,0-3.4,0-5.2,0.1c0.3-2.7,1.4-5.3,3.4-7.3c2-2.2,4.9-3.4,7.9-3.5c3,0,5.9,1.2,8,3.4c1.8,2,2.7,4.6,2.6,7.3
	C21.9,21.5,20.6,21.6,19.3,21.7z"/>
</svg>
