<svg xmlns="http://www.w3.org/2000/svg" width="14.531" height="14.419" viewBox="0 0 14.531 14.419">
  <g id="Group_219" data-name="Group 219" transform="translate(150.705 -374.353)">
    <g id="Group_218" data-name="Group 218" transform="translate(-150.705 374.353)">
      <path id="Path_242" data-name="Path 242" d="M-135.66,365.068a5.541,5.541,0,0,1-2.373,5.087,23.1,23.1,0,0,1-2.437,1.311c-.4.217-.788.514-1.233.729a3.454,3.454,0,0,1-1.417.275,6.676,6.676,0,0,1-5.12-2.282,9.73,9.73,0,0,1-1.929-5.12,6.6,6.6,0,0,1,2.006-5.043,7.293,7.293,0,0,1,5.043-1.969,7.054,7.054,0,0,1,4.991,2.022A7.779,7.779,0,0,1-135.66,365.068Zm-1.5,0a5.719,5.719,0,0,0-1.461-4.5,6.4,6.4,0,0,0-4.5-1.908,6.168,6.168,0,0,0-4.443,1.96,6.954,6.954,0,0,0-1.923,4.443,5.785,5.785,0,0,0,.428,2.46c.225.847,1.024,1.345,1.572,1.906a6.96,6.96,0,0,0,4.366,1.647,8.576,8.576,0,0,1,1.2.015,3.841,3.841,0,0,0,1.284-.033,3.659,3.659,0,0,0,1.916-1.6A10.631,10.631,0,0,0-137.164,365.068Z" transform="translate(150.177 -358.055)" fill="#557571"/>
    </g>
  </g>
</svg>
