<?xml version="1.0" encoding="utf-8"?>
<!-- Generator: Adobe Illustrator 24.0.3, SVG Export Plug-In . SVG Version: 6.00 Build 0)  -->
<svg version="1.1" id="Layer_1" xmlns="http://www.w3.org/2000/svg" xmlns:xlink="http://www.w3.org/1999/xlink" x="0px" y="0px"
	 viewBox="0 0 25.8 22.9" style="enable-background:new 0 0 25.8 22.9;" xml:space="preserve">
<style type="text/css">
	.st0{fill:#557571;}
</style>
<g id="Group_218" transform="translate(-150.705 358.055)">
	<path id="Path_242" class="st0" d="M168.6-353.2c0.1,1.4-0.5,2.7-1.6,3.5c-0.5,0.3-1.1,0.6-1.7,0.9c-0.3,0.1-0.5,0.4-0.8,0.5
		c-0.3,0.1-0.6,0.2-1,0.2c-1.3,0-2.6-0.6-3.5-1.6c-0.8-1-1.2-2.2-1.3-3.5c-0.1-1.3,0.4-2.6,1.4-3.5c0.9-0.9,2.2-1.4,3.5-1.4
		c1.3,0,2.5,0.5,3.4,1.4C167.8-355.8,168.5-354.6,168.6-353.2z M167.5-353.2c0.1-1.1-0.2-2.3-1-3.1c-0.8-0.8-1.9-1.3-3.1-1.3
		c-1.2,0-2.3,0.5-3.1,1.3c-0.8,0.8-1.3,1.9-1.3,3.1c0,0.6,0.1,1.2,0.3,1.7c0.2,0.6,0.7,0.9,1.1,1.3c0.8,0.7,1.9,1.1,3,1.1
		c0.3,0,0.6,0,0.8,0c0.3,0,0.6,0,0.9,0c0.6-0.2,1-0.6,1.3-1.1C167-351.1,167.4-352.2,167.5-353.2L167.5-353.2z"/>
</g>
<path class="st0" d="M22.5,22.7c-2.6,0-5.1-0.1-7.7,0c-1.3,0-2.6,0.2-3.8,0.2c-1.3,0-2.6-0.1-3.8-0.1c-1.3-0.1-2.6-0.1-3.8,0
	c-0.8,0.1-1.7-0.6-1.9-1.4c0-0.2-0.1-0.4,0-0.6c0-0.1,0-0.2,0.1-0.3l0.1-0.2l0.3-0.9L3,15.6L4.4,12l0.3-0.9c0.1-0.3,0.2-0.7,0.5-0.9
	c0.3-0.3,0.6-0.4,1-0.5l1,0C8.4,9.6,9.7,9.5,11,9.6c1.3,0,2.6,0.2,3.8,0.2c1.3,0,2.6,0,3.8-0.1c0.3,0,0.6,0,1,0c0.4,0,0.7,0.2,1,0.4
	c0.3,0.2,0.4,0.7,0.5,1l0.3,0.9l1.1,3.7c0.4,1.2,0.7,2.5,1.2,3.6l0.4,0.9c0.1,0.2,0.3,0.7,0.2,1.1c-0.1,0.4-0.3,0.8-0.6,1.1
	C23.3,22.7,22.9,22.7,22.5,22.7z M22.5,22c0.2,0,0.4-0.2,0.6-0.3c0.2-0.1,0.3-0.3,0.4-0.5c0.1-0.2,0.1-0.4,0-0.7l-0.2-0.9
	c-0.3-1.3-0.6-2.5-1.1-3.7l-1.2-3.6l-0.3-0.9c-0.1-0.3-0.2-0.5-0.4-0.7c-0.2-0.2-0.4-0.3-0.7-0.3l-0.9,0c-1.3-0.1-2.6-0.1-3.8-0.1
	c-1.3,0-2.6,0.1-3.8,0.2c-1.3,0.1-2.6,0-3.8-0.1c-0.3,0-0.7,0-0.9,0c-0.3,0-0.5,0.1-0.7,0.3c-0.2,0.2-0.3,0.4-0.4,0.8l-0.3,0.9
	l-1,3.7l-1.1,3.7l-0.3,0.9l-0.1,0.2c0,0.1,0,0.1,0,0.2c0,0.1,0,0.2,0,0.3c0.1,0.4,0.5,0.7,0.9,0.8c1.3,0.2,2.6,0.1,3.8,0
	c1.3-0.1,2.6-0.2,3.8-0.1c1.3,0,2.6,0.2,3.8,0.2C17.4,22.1,19.9,22,22.5,22z"/>
</svg>
